<svg xmlns="http://www.w3.org/2000/svg" xmlns:xlink="http://www.w3.org/1999/xlink" width="348" height="64" viewBox="0 0 348 64"><title>blog</title><defs><clipPath id="clip"><path d="M33.792112025921135 63.98948143067668C40.372753996308056 64.28261832283786 45.19379838093207 58.38426091030547 50.1766465346331 54.36523746804901C54.535357408233494 50.84962538462505 58.50403491718514 47.02275061038345 60.891758877958814 42.13167789831051C63.277455322883235 37.2447583997608 64.58709122385771 31.886614597001405 63.74323058540284 26.575111751312864C62.90142276235284 21.276529919317486 60.0951697668193 16.420321461579547 56.183689496989125 12.497727960192718C52.35864660574434 8.661817421808703 47.12796492613839 6.7212936669505545 41.94102888647263 4.710966005829699C36.15191463781377 2.467249017906761 30.416682314988552 -0.5873710432480489 24.190701281612764 0.09803984384779652C17.49011248281552 0.8356997384135113 11.006233068368326 3.853863048372015 6.581347574409848 8.603671493624361C2.154074978144753 13.356042328052906 -0.10994319362693092 19.76636731773346 0.004105151678572027 26.060677457120025C0.11022520401806585 31.917426361660848 3.808693713173221 36.98245322921553 7.185049810209885 41.921902405152366C10.163371315520244 46.279045811320906 14.243302207668831 49.515093796234375 18.383597909913682 52.94900550950784C23.323570223984728 57.04615943581744 27.188482298324733 63.6953205412009 33.792112025921135 63.98948143067668"/></clipPath></defs><g clip-path="url(#clip)"><path d="M23.2,36.1L14.4,37.7L14.9,40.4Z" fill="rgb(151,208,201)" shape-rendering="crispEdges"/><path d="M23.2,36.1L21.2,27L14.4,37.7Z" fill="rgb(154,214,195)" shape-rendering="crispEdges"/><path d="M14.9,40.4L23.8,51.7L23.2,36.1Z" fill="rgb(135,196,196)" shape-rendering="crispEdges"/><path d="M23.2,36.1L24.9,22.5L21.2,27Z" fill="rgb(159,217,186)" shape-rendering="crispEdges"/><path d="M26.3,21.7L24.9,22.5L23.2,36.1Z" fill="rgb(159,217,184)" shape-rendering="crispEdges"/><path d="M45.8,29.3L26.3,21.7L23.2,36.1Z" fill="rgb(133,207,193)" shape-rendering="crispEdges"/><path d="M23.8,51.7L29.2,53.8L23.2,36.1Z" fill="rgb(115,180,189)" shape-rendering="crispEdges"/><path d="M13.5,14.2L21.2,27L24.9,22.5Z" fill="rgb(184,227,188)" shape-rendering="crispEdges"/><path d="M13.5,14.2L6.8,20.8L21.2,27Z" fill="rgb(196,232,195)" shape-rendering="crispEdges"/><path d="M21.2,27L6.8,20.8L14.4,37.7Z" fill="rgb(177,224,196)" shape-rendering="crispEdges"/><path d="M14.4,37.7L-4.8,39.7L14.9,40.4Z" fill="rgb(162,212,214)" shape-rendering="crispEdges"/><path d="M6.8,20.8L-4.8,39.7L14.4,37.7Z" fill="rgb(178,224,211)" shape-rendering="crispEdges"/><path d="M14.9,40.4L10.7,62.7L23.8,51.7Z" fill="rgb(133,177,190)" shape-rendering="crispEdges"/><path d="M29.2,53.8L41.1,48.7L23.2,36.1Z" fill="rgb(97,177,195)" shape-rendering="crispEdges"/><path d="M13.7,13.4L13.5,14.2L24.9,22.5Z" fill="rgb(200,233,195)" shape-rendering="crispEdges"/><path d="M26.3,21.7L13.7,13.4L24.9,22.5Z" fill="rgb(184,227,188)" shape-rendering="crispEdges"/><path d="M13.5,14.2L13.7,13.4L6.8,20.8Z" fill="rgb(210,237,203)" shape-rendering="crispEdges"/><path d="M-4.8,39.7L2.3,58L14.9,40.4Z" fill="rgb(156,197,213)" shape-rendering="crispEdges"/><path d="M23.8,51.7L10.7,62.7L29.2,53.8Z" fill="rgb(118,162,181)" shape-rendering="crispEdges"/><path d="M2.3,58L10.7,62.7L14.9,40.4Z" fill="rgb(140,175,197)" shape-rendering="crispEdges"/><path d="M29.2,53.8L36,66.6L41.1,48.7Z" fill="rgb(71,146,187)" shape-rendering="crispEdges"/><path d="M41.1,48.7L45.8,29.3L23.2,36.1Z" fill="rgb(95,187,206)" shape-rendering="crispEdges"/><path d="M26.3,21.7L16.8,6.7L13.7,13.4Z" fill="rgb(200,234,197)" shape-rendering="crispEdges"/><path d="M-11.7,29.2L-9.9,39.2L-4.8,39.7Z" fill="rgb(180,222,222)" shape-rendering="crispEdges"/><path d="M-4.8,39.7L-13.1,59.8L2.3,58Z" fill="rgb(154,183,210)" shape-rendering="crispEdges"/><path d="M25.1,1.4L16.8,6.7L26.3,21.7Z" fill="rgb(197,232,199)" shape-rendering="crispEdges"/><path d="M-11,20.4L-10,23.4L6.8,20.8Z" fill="rgb(213,239,213)" shape-rendering="crispEdges"/><path d="M-10,23.4L-11.7,29.2L-4.8,39.7Z" fill="rgb(191,229,217)" shape-rendering="crispEdges"/><path d="M-10,23.4L-4.8,39.7L6.8,20.8Z" fill="rgb(198,232,214)" shape-rendering="crispEdges"/><path d="M-11,20.4L6.8,20.8L-13.7,5.7Z" fill="rgb(226,244,219)" shape-rendering="crispEdges"/><path d="M29.1,75.2L36,66.6L29.2,53.8Z" fill="rgb(80,131,162)" shape-rendering="crispEdges"/><path d="M11,-0.6L6.8,20.8L13.7,13.4Z" fill="rgb(217,240,211)" shape-rendering="crispEdges"/><path d="M-10,23.4L-11,20.4L-11.7,29.2Z" fill="rgb(207,236,210)" shape-rendering="crispEdges"/><path d="M2.3,58L2.6,70L10.7,62.7Z" fill="rgb(134,150,179)" shape-rendering="crispEdges"/><path d="M10.7,62.7L29.1,75.2L29.2,53.8Z" fill="rgb(106,139,158)" shape-rendering="crispEdges"/><path d="M-13.1,59.8L-3.1,65.1L2.3,58Z" fill="rgb(144,160,193)" shape-rendering="crispEdges"/><path d="M-3.1,65.1L2.6,70L2.3,58Z" fill="rgb(140,152,183)" shape-rendering="crispEdges"/><path d="M32.7,-0.3L25.1,1.4L26.3,21.7Z" fill="rgb(187,228,204)" shape-rendering="crispEdges"/><path d="M16.8,6.7L11,-0.6L13.7,13.4Z" fill="rgb(219,241,213)" shape-rendering="crispEdges"/><path d="M45.3,65L53.2,53.5L41.1,48.7Z" fill="rgb(35,126,183)" shape-rendering="crispEdges"/><path d="M41.1,48.7L60.7,36.4L45.8,29.3Z" fill="rgb(68,159,198)" shape-rendering="crispEdges"/><path d="M36,66.6L45.3,65L41.1,48.7Z" fill="rgb(50,128,179)" shape-rendering="crispEdges"/><path d="M2.6,70L11.2,75.5L10.7,62.7Z" fill="rgb(130,148,174)" shape-rendering="crispEdges"/><path d="M36,66.6L35.7,77.9L45.3,65Z" fill="rgb(54,121,169)" shape-rendering="crispEdges"/><path d="M11.2,75.5L29.1,75.2L10.7,62.7Z" fill="rgb(119,143,163)" shape-rendering="crispEdges"/><path d="M-27.3,47.4L-13.1,59.8L-9.9,39.2Z" fill="rgb(158,192,214)" shape-rendering="crispEdges"/><path d="M-9.9,39.2L-13.1,59.8L-4.8,39.7Z" fill="rgb(162,199,218)" shape-rendering="crispEdges"/><path d="M-3.1,65.1L1.7,80.3L2.6,70Z" fill="rgb(140,152,184)" shape-rendering="crispEdges"/><path d="M25.1,1.4L11,-0.6L16.8,6.7Z" fill="rgb(218,241,213)" shape-rendering="crispEdges"/><path d="M60.7,36.4L52.1,15.8L45.8,29.3Z" fill="rgb(104,164,184)" shape-rendering="crispEdges"/><path d="M45.8,29.3L47.8,10L26.3,21.7Z" fill="rgb(140,203,200)" shape-rendering="crispEdges"/><path d="M52.1,15.8L47.8,10L45.8,29.3Z" fill="rgb(132,183,192)" shape-rendering="crispEdges"/><path d="M47.8,10L32.7,-0.3L26.3,21.7Z" fill="rgb(166,216,208)" shape-rendering="crispEdges"/><path d="M25.1,1.4L16,-10.9L11,-0.6Z" fill="rgb(223,242,217)" shape-rendering="crispEdges"/><path d="M53.2,53.5L60.7,36.4L41.1,48.7Z" fill="rgb(43,136,188)" shape-rendering="crispEdges"/><path d="M29.1,85.5L35.7,77.9L29.1,75.2Z" fill="rgb(80,131,162)" shape-rendering="crispEdges"/><path d="M29.1,75.2L35.7,77.9L36,66.6Z" fill="rgb(73,128,164)" shape-rendering="crispEdges"/><path d="M53.2,53.5L62.2,48.9L60.7,36.4Z" fill="rgb(36,119,176)" shape-rendering="crispEdges"/><path d="M73.2,52.9L62.2,48.9L65.4,71.7Z" fill="rgb(9,79,145)" shape-rendering="crispEdges"/><path d="M73.7,43.6L62.2,48.9L73.2,52.9Z" fill="rgb(29,100,159)" shape-rendering="crispEdges"/><path d="M2.6,70L1.7,80.3L11.2,75.5Z" fill="rgb(134,149,178)" shape-rendering="crispEdges"/><path d="M11.2,75.5L29.1,85.5L29.1,75.2Z" fill="rgb(106,139,157)" shape-rendering="crispEdges"/><path d="M-15.6,70L1.7,80.3L-3.1,65.1Z" fill="rgb(141,152,184)" shape-rendering="crispEdges"/><path d="M11,-0.6L-13.7,5.7L6.8,20.8Z" fill="rgb(233,246,227)" shape-rendering="crispEdges"/><path d="M-22.2,8.7L-27.3,47.4L-11.7,29.2Z" fill="rgb(197,232,214)" shape-rendering="crispEdges"/><path d="M-27.3,47.4L-15.6,70L-13.1,59.8Z" fill="rgb(146,166,198)" shape-rendering="crispEdges"/><path d="M-13.1,59.8L-15.6,70L-3.1,65.1Z" fill="rgb(141,152,184)" shape-rendering="crispEdges"/><path d="M-27.3,47.4L-9.9,39.2L-11.7,29.2Z" fill="rgb(175,217,224)" shape-rendering="crispEdges"/><path d="M-22.2,8.7L-11.7,29.2L-11,20.4Z" fill="rgb(218,241,215)" shape-rendering="crispEdges"/><path d="M58.8,5L51.4,3.7L47.8,10Z" fill="rgb(145,179,202)" shape-rendering="crispEdges"/><path d="M47.8,10L51.4,3.7L32.7,-0.3Z" fill="rgb(159,202,215)" shape-rendering="crispEdges"/><path d="M58.8,5L47.8,10L52.1,15.8Z" fill="rgb(140,177,197)" shape-rendering="crispEdges"/><path d="M10.4,91.9L29.1,85.5L11.2,75.5Z" fill="rgb(119,144,163)" shape-rendering="crispEdges"/><path d="M62.2,48.9L53.2,53.5L65.4,71.7Z" fill="rgb(10,88,155)" shape-rendering="crispEdges"/><path d="M20.3,-13.7L25.1,1.4L32.7,-0.3Z" fill="rgb(203,235,212)" shape-rendering="crispEdges"/><path d="M20.3,-13.7L16,-10.9L25.1,1.4Z" fill="rgb(216,240,214)" shape-rendering="crispEdges"/><path d="M11,-0.6L-2.1,-13.6L-13.7,5.7Z" fill="rgb(247,252,240)" shape-rendering="crispEdges"/><path d="M60.7,36.4L65.5,19.1L52.1,15.8Z" fill="rgb(108,151,169)" shape-rendering="crispEdges"/><path d="M72,28.7L65.5,19.1L60.7,36.4Z" fill="rgb(91,134,160)" shape-rendering="crispEdges"/><path d="M-23.8,-10L-22.2,8.7L-13.7,5.7Z" fill="rgb(245,251,238)" shape-rendering="crispEdges"/><path d="M-13.7,5.7L-22.2,8.7L-11,20.4Z" fill="rgb(231,246,224)" shape-rendering="crispEdges"/><path d="M65.5,19.1L58.8,5L52.1,15.8Z" fill="rgb(130,160,182)" shape-rendering="crispEdges"/><path d="M41,-9.4L20.3,-13.7L32.7,-0.3Z" fill="rgb(189,229,217)" shape-rendering="crispEdges"/><path d="M41,-9.4L32.7,-0.3L51.4,3.7Z" fill="rgb(169,211,223)" shape-rendering="crispEdges"/><path d="M16,-10.9L-2.1,-13.6L11,-0.6Z" fill="rgb(235,247,229)" shape-rendering="crispEdges"/><path d="M56,-3.3L41,-9.4L51.4,3.7Z" fill="rgb(157,191,214)" shape-rendering="crispEdges"/><path d="M-15.7,90.2L5.7,89.6L1.7,80.3Z" fill="rgb(141,152,184)" shape-rendering="crispEdges"/><path d="M1.7,80.3L5.7,89.6L11.2,75.5Z" fill="rgb(133,149,177)" shape-rendering="crispEdges"/><path d="M73.7,43.6L72,28.7L60.7,36.4Z" fill="rgb(65,124,166)" shape-rendering="crispEdges"/><path d="M65.5,19.1L70.7,2.5L58.8,5Z" fill="rgb(129,147,173)" shape-rendering="crispEdges"/><path d="M5.7,89.6L10.4,91.9L11.2,75.5Z" fill="rgb(129,147,173)" shape-rendering="crispEdges"/><path d="M53.2,53.5L45.3,65L65.4,71.7Z" fill="rgb(14,88,153)" shape-rendering="crispEdges"/><path d="M62.2,48.9L73.7,43.6L60.7,36.4Z" fill="rgb(43,112,166)" shape-rendering="crispEdges"/><path d="M65.8,-4.8L56,-3.3L58.8,5Z" fill="rgb(145,162,195)" shape-rendering="crispEdges"/><path d="M58.8,5L56,-3.3L51.4,3.7Z" fill="rgb(148,175,205)" shape-rendering="crispEdges"/><path d="M9.7,-27.5L-2.1,-13.6L16,-10.9Z" fill="rgb(236,248,230)" shape-rendering="crispEdges"/><path d="M65.4,71.7L45.3,65L66,74.4Z" fill="rgb(9,76,143)" shape-rendering="crispEdges"/><path d="M9.7,-27.5L-4.9,-13.8L-2.1,-13.6Z" fill="rgb(246,252,239)" shape-rendering="crispEdges"/><path d="M-2.1,-13.6L-4.9,-13.8L-13.7,5.7Z" fill="rgb(247,252,240)" shape-rendering="crispEdges"/><path d="M66,74.4L45.3,65L52,89.3Z" fill="rgb(15,87,152)" shape-rendering="crispEdges"/><path d="M41,-9.4L34.3,-22.9L20.3,-13.7Z" fill="rgb(188,228,218)" shape-rendering="crispEdges"/><path d="M20.3,-13.7L9.7,-27.5L16,-10.9Z" fill="rgb(226,244,219)" shape-rendering="crispEdges"/><path d="M56,-3.3L43.7,-15.4L41,-9.4Z" fill="rgb(161,197,217)" shape-rendering="crispEdges"/><path d="M52,89.3L45.3,65L35.7,77.9Z" fill="rgb(40,109,164)" shape-rendering="crispEdges"/><path d="M80,54.6L79.1,53.3L73.2,52.9Z" fill="rgb(17,89,153)" shape-rendering="crispEdges"/><path d="M52,89.3L35.7,77.9L29.1,85.5Z" fill="rgb(55,121,169)" shape-rendering="crispEdges"/><path d="M10.4,91.9L52,89.3L29.1,85.5Z" fill="rgb(83,132,162)" shape-rendering="crispEdges"/><path d="M80,54.6L73.2,52.9L79.3,67.2Z" fill="rgb(9,78,144)" shape-rendering="crispEdges"/><path d="M73.2,52.9L79.1,53.3L73.7,43.6Z" fill="rgb(26,97,157)" shape-rendering="crispEdges"/><path d="M73.7,43.6L87,27.1L72,28.7Z" fill="rgb(74,129,164)" shape-rendering="crispEdges"/><path d="M5.7,89.6L-15.7,90.2L10.4,91.9Z" fill="rgb(140,152,184)" shape-rendering="crispEdges"/><path d="M-15.6,70L-15.7,90.2L1.7,80.3Z" fill="rgb(141,152,184)" shape-rendering="crispEdges"/><path d="M-27.3,47.4L-15.7,90.2L-15.6,70Z" fill="rgb(141,152,184)" shape-rendering="crispEdges"/><path d="M81,1.8L70.7,2.5L87.4,9.7Z" fill="rgb(135,150,178)" shape-rendering="crispEdges"/><path d="M56,-3.3L66.5,-21.5L43.7,-15.4Z" fill="rgb(151,176,207)" shape-rendering="crispEdges"/><path d="M87.4,9.7L65.5,19.1L72,28.7Z" fill="rgb(114,142,161)" shape-rendering="crispEdges"/><path d="M66.5,-21.5L34.3,-22.9L43.7,-15.4Z" fill="rgb(159,194,215)" shape-rendering="crispEdges"/><path d="M43.7,-15.4L34.3,-22.9L41,-9.4Z" fill="rgb(172,216,225)" shape-rendering="crispEdges"/><path d="M79.3,67.2L73.2,52.9L65.4,71.7Z" fill="rgb(8,64,129)" shape-rendering="crispEdges"/><path d="M79.1,53.3L87,27.1L73.7,43.6Z" fill="rgb(47,116,168)" shape-rendering="crispEdges"/><path d="M70.7,2.5L65.8,-4.8L58.8,5Z" fill="rgb(140,151,183)" shape-rendering="crispEdges"/><path d="M-27.6,-19.9L-23.8,-10L-4.9,-13.8Z" fill="rgb(247,252,240)" shape-rendering="crispEdges"/><path d="M-4.9,-13.8L-23.8,-10L-13.7,5.7Z" fill="rgb(247,252,240)" shape-rendering="crispEdges"/><path d="M-22.2,8.7L-27.6,-19.9L-27.3,47.4Z" fill="rgb(230,246,224)" shape-rendering="crispEdges"/><path d="M34.3,-22.9L9.7,-27.5L20.3,-13.7Z" fill="rgb(214,239,213)" shape-rendering="crispEdges"/><path d="M77.7,76.6L65.4,71.7L66,74.4Z" fill="rgb(8,64,129)" shape-rendering="crispEdges"/><path d="M77.7,76.6L79.3,67.2L65.4,71.7Z" fill="rgb(8,64,129)" shape-rendering="crispEdges"/><path d="M90.1,88.9L87,27.1L80,54.6Z" fill="rgb(10,81,148)" shape-rendering="crispEdges"/><path d="M80,54.6L87,27.1L79.1,53.3Z" fill="rgb(38,108,163)" shape-rendering="crispEdges"/><path d="M79.7,78.4L77.7,76.6L66,74.4Z" fill="rgb(8,64,129)" shape-rendering="crispEdges"/><path d="M79.3,67.2L90.1,88.9L80,54.6Z" fill="rgb(8,64,129)" shape-rendering="crispEdges"/><path d="M87.4,9.7L70.7,2.5L65.5,19.1Z" fill="rgb(128,147,171)" shape-rendering="crispEdges"/><path d="M70.7,2.5L75,-9.7L65.8,-4.8Z" fill="rgb(141,152,184)" shape-rendering="crispEdges"/><path d="M65.8,-4.8L66.5,-21.5L56,-3.3Z" fill="rgb(142,155,187)" shape-rendering="crispEdges"/><path d="M52,89.3L79.7,78.4L66,74.4Z" fill="rgb(8,64,129)" shape-rendering="crispEdges"/><path d="M77.7,76.6L79.7,78.4L79.3,67.2Z" fill="rgb(8,64,129)" shape-rendering="crispEdges"/><path d="M81,1.8L75,-9.7L70.7,2.5Z" fill="rgb(141,152,184)" shape-rendering="crispEdges"/><path d="M87,27.1L87.4,9.7L72,28.7Z" fill="rgb(109,140,158)" shape-rendering="crispEdges"/><path d="M81,1.8L88.2,-12.1L75,-9.7Z" fill="rgb(141,152,184)" shape-rendering="crispEdges"/><path d="M9.7,-27.5L-27.6,-19.9L-4.9,-13.8Z" fill="rgb(247,252,240)" shape-rendering="crispEdges"/><path d="M-23.8,-10L-27.6,-19.9L-22.2,8.7Z" fill="rgb(247,252,240)" shape-rendering="crispEdges"/><path d="M75,-9.7L66.5,-21.5L65.8,-4.8Z" fill="rgb(141,152,184)" shape-rendering="crispEdges"/><path d="M34.3,-22.9L66.5,-21.5L9.7,-27.5Z" fill="rgb(178,220,223)" shape-rendering="crispEdges"/><path d="M88.2,-12.1L70.6,-20.9L75,-9.7Z" fill="rgb(141,152,184)" shape-rendering="crispEdges"/><path d="M75,-9.7L70.6,-20.9L66.5,-21.5Z" fill="rgb(141,152,184)" shape-rendering="crispEdges"/><path d="M90.1,88.9L88.2,-12.1L87.4,9.7Z" fill="rgb(89,134,160)" shape-rendering="crispEdges"/><path d="M87.4,9.7L88.2,-12.1L81,1.8Z" fill="rgb(141,152,184)" shape-rendering="crispEdges"/><path d="M10.4,91.9L90.1,88.9L52,89.3Z" fill="rgb(24,95,156)" shape-rendering="crispEdges"/><path d="M52,89.3L90.1,88.9L79.7,78.4Z" fill="rgb(8,64,129)" shape-rendering="crispEdges"/><path d="M79.7,78.4L90.1,88.9L79.3,67.2Z" fill="rgb(8,64,129)" shape-rendering="crispEdges"/><path d="M87,27.1L90.1,88.9L87.4,9.7Z" fill="rgb(46,115,167)" shape-rendering="crispEdges"/></g><g transform="translate(76.8, 12.8)"><path fill="#ddd" d="M3.0062630480167023 5.932359081419624C5.090605427974949 5.932359081419624 6.012526096033405 4.850104384133613 6.012526096033405 3.367014613778706L6.012526096033405 2.5653444676409194C6.012526096033405 1.0822546972860128 5.090605427974949 0 3.0062630480167023 0C0.8818371607515663 0 4.450163271983927e-16 1.0822546972860128 4.450163271983927e-16 2.5653444676409194L4.450163271983927e-16 3.367014613778706C4.450163271983927e-16 4.850104384133613 0.8818371607515663 5.932359081419624 3.0062630480167023 5.932359081419624zM0.44091858037578335 29.902296450939463L5.571607515657622 29.902296450939463L5.571607515657622 8.978705636743218L0.44091858037578335 8.978705636743218zM23.689352818371614 29.902296450939463L28.820041753653452 29.902296450939463L28.820041753653452 0.2405010438413364L23.689352818371614 0.2405010438413364L23.689352818371614 12.425887265135701L23.48893528183717 12.425887265135701C22.767432150313155 10.02087682672234 20.482672233820466 8.497703549060544 17.716910229645098 8.497703549060544C12.465970772442592 8.497703549060544 9.539874739039668 12.425887265135701 9.539874739039668 19.40041753653445C9.539874739039668 26.415031315240093 12.465970772442592 30.38329853862213 17.716910229645098 30.38329853862213C20.482672233820466 30.38329853862213 22.727348643006266 28.779958246346563 23.48893528183717 26.415031315240093L23.689352818371614 26.415031315240093zM19.360334029227563 26.134446764091866C16.71482254697286 26.134446764091866 14.91106471816284 24.210438413361175 14.91106471816284 21.24425887265136L14.91106471816284 17.63674321503132C14.91106471816284 14.670563674321507 16.71482254697286 12.706471816283926 19.360334029227563 12.706471816283926C21.805427974947815 12.706471816283926 23.689352818371614 14.029227557411277 23.689352818371614 16.073486430062633L23.689352818371614 22.72734864300627C23.689352818371614 24.89185803757829 21.805427974947815 26.134446764091866 19.360334029227563 26.134446764091866zM42.40835073068895 30.38329853862213C46.296450939457216 30.38329853862213 49.3427974947808 28.90020876826723 51.06638830897704 26.535281837160756L48.30062630480168 23.44885177453028C47.01795407098122 25.092275574112744 45.49478079331943 26.29478079331942 42.96951983298539 26.29478079331942C39.602505219206684 26.29478079331942 37.87891440501044 24.250521920668064 37.87891440501044 21.24425887265136L37.87891440501044 20.7231732776618L51.78789144050106 20.7231732776618L51.78789144050106 19.039665970772447C51.78789144050106 13.307724425887269 48.78162839248436 8.497703549060544 42.24801670146138 8.497703549060544C36.115240083507324 8.497703549060544 32.547807933194164 12.786638830897708 32.547807933194164 19.40041753653445C32.547807933194164 26.094363256784977 36.23549060542798 30.38329853862213 42.40835073068895 30.38329853862213zM42.32818371607516 12.345720250521923C44.97369519832986 12.345720250521923 46.45678496868477 14.309812108559504 46.45678496868477 17.195824634655537L46.45678496868477 17.55657620041754L37.87891440501044 17.55657620041754L37.87891440501044 17.235908141962426C37.87891440501044 14.34989561586639 39.64258872651358 12.345720250521923 42.32818371607516 12.345720250521923zM60.68643006263049 30.38329853862213C63.81294363256787 30.38329853862213 66.09770354906057 28.980375782881005 66.77912317327768 26.29478079331942L67.01962421711902 26.29478079331942C67.34029227557413 28.459290187891447 68.70313152400837 29.902296450939463 70.90772442588728 29.902296450939463L73.75365344467643 29.902296450939463L73.75365344467643 25.81377870563675L71.66931106471819 25.81377870563675L71.66931106471819 15.953235908141965C71.66931106471819 11.183298538622132 68.66304801670148 8.497703549060544 63.011273486430085 8.497703549060544C58.8025052192067 8.497703549060544 56.357411273486434 10.101043841336118 54.834237995824644 12.506054279749481L57.880584551148246 15.231732776617957C58.88267223382048 13.788726513569943 60.24551148225471 12.586221294363257 62.65052192066808 12.586221294363257C65.37620041753655 12.586221294363257 66.53862212943635 13.949060542797495 66.53862212943635 16.27390396659708L66.53862212943635 17.79707724425888L62.97118997912319 17.79707724425888C57.279331941544896 17.79707724425888 54.03256784968686 19.921503131524013 54.03256784968686 24.210438413361175C54.03256784968686 27.938204592901883 56.43757828810023 30.38329853862213 60.68643006263049 30.38329853862213zM62.410020876826735 26.655532359081423C60.40584551148227 26.655532359081423 59.24342379958248 25.81377870563675 59.24342379958248 24.130271398747396L59.24342379958248 23.44885177453028C59.24342379958248 21.805427974947815 60.566179540709825 20.883507306889356 63.25177453027142 20.883507306889356L66.53862212943635 20.883507306889356L66.53862212943635 23.64926931106472C66.53862212943635 25.6133611691023 64.69478079331942 26.655532359081423 62.410020876826735 26.655532359081423zM82.25135699373696 29.902296450939463L82.25135699373696 16.073486430062633C82.25135699373696 13.82881002087683 84.17536534446766 12.706471816283926 86.13945720250524 12.706471816283926C88.42421711899794 12.706471816283926 89.50647181628395 14.189561586638835 89.50647181628395 17.195824634655537L89.50647181628395 29.902296450939463L94.63716075156577 29.902296450939463L94.63716075156577 16.073486430062633C94.63716075156577 13.82881002087683 96.52108559498959 12.706471816283926 98.52526096033405 12.706471816283926C100.81002087682675 12.706471816283926 101.89227557411276 14.189561586638835 101.89227557411276 17.195824634655537L101.89227557411276 29.902296450939463L107.0229645093946 29.902296450939463L107.0229645093946 16.674739039665976C107.0229645093946 11.46388308977036 104.69812108559502 8.497703549060544 100.6096033402923 8.497703549060544C97.28267223382048 8.497703549060544 94.9578288100209 10.381628392484345 94.19624217119 12.706471816283926L94.11607515657622 12.706471816283926C93.11398747390399 9.900626304801671 90.90939457202506 8.497703549060544 88.06346555323593 8.497703549060544C84.93695198329856 8.497703549060544 83.2534446764092 10.261377870563674 82.45177453027142 12.465970772442592L82.25135699373696 12.465970772442592L82.25135699373696 8.978705636743218L77.12066805845514 8.978705636743218L77.12066805845514 29.902296450939463zM117.08392484342383 30.38329853862213C120.2104384133612 30.38329853862213 122.49519832985389 28.980375782881005 123.176617954071 26.29478079331942L123.41711899791235 26.29478079331942C123.73778705636747 28.459290187891447 125.1006263048017 29.902296450939463 127.30521920668062 29.902296450939463L130.15114822546974 29.902296450939463L130.15114822546974 25.81377870563675L128.0668058455115 25.81377870563675L128.0668058455115 15.953235908141965C128.0668058455115 11.183298538622132 125.0605427974948 8.497703549060544 119.40876826722342 8.497703549060544C115.20000000000003 8.497703549060544 112.75490605427979 10.101043841336118 111.23173277661797 12.506054279749481L114.27807933194157 15.231732776617957C115.28016701461381 13.788726513569943 116.64300626304805 12.586221294363257 119.04801670146139 12.586221294363257C121.77369519832989 12.586221294363257 122.93611691022967 13.949060542797495 122.93611691022967 16.27390396659708L122.93611691022967 17.79707724425888L119.36868475991652 17.79707724425888C113.67682672233822 17.79707724425888 110.4300626304802 19.921503131524013 110.4300626304802 24.210438413361175C110.4300626304802 27.938204592901883 112.83507306889356 30.38329853862213 117.08392484342383 30.38329853862213zM118.80751565762007 26.655532359081423C116.8033402922756 26.655532359081423 115.64091858037581 25.81377870563675 115.64091858037581 24.130271398747396L115.64091858037581 23.44885177453028C115.64091858037581 21.805427974947815 116.96367432150315 20.883507306889356 119.64926931106474 20.883507306889356L122.93611691022967 20.883507306889356L122.93611691022967 23.64926931106472C122.93611691022967 25.6133611691023 121.09227557411276 26.655532359081423 118.80751565762007 26.655532359081423zM138.64885177453027 29.902296450939463L138.64885177453027 16.073486430062633C138.64885177453027 13.82881002087683 140.69311064718164 12.706471816283926 142.8175365344468 12.706471816283926C145.26263048016702 12.706471816283926 146.26471816283924 14.229645093945722 146.26471816283924 17.195824634655537L146.26471816283924 29.902296450939463L151.3954070981211 29.902296450939463L151.3954070981211 16.674739039665976C151.3954070981211 11.46388308977036 148.99039665970773 8.497703549060544 144.70146137787057 8.497703549060544C141.45469728601256 8.497703549060544 139.6910229645094 10.221294363256787 138.84926931106475 12.465970772442592L138.64885177453027 12.465970772442592L138.64885177453027 8.978705636743218L133.51816283924845 8.978705636743218L133.51816283924845 29.902296450939463zM160.21377870563677 12.746555323590815L160.21377870563677 0.2405010438413364L155.6442588726514 0.2405010438413364L155.6442588726514 12.746555323590815zM172.1586638830898 30.38329853862213C177.36951983298542 30.38329853862213 180.77661795407099 27.57745302713988 180.77661795407099 23.529018789144054C180.77661795407099 20.04175365344468 178.5720250521921 17.997494780793325 174.0025052192067 17.356158663883093L171.87807933194156 17.075574112734866C169.913987473904 16.75490605427975 169.15240083507308 16.113569937369522 169.15240083507308 14.710647181628396C169.15240083507308 13.427974947807934 170.11440501043845 12.54613778705637 172.31899791231734 12.54613778705637C174.3632567849687 12.54613778705637 176.12693110647183 13.508141962421716 177.3294363256785 14.790814196242176L180.3356993736952 11.784551148225473C178.33152400835075 9.700208768267226 176.24718162839252 8.497703549060544 172.1586638830898 8.497703549060544C167.38872651356996 8.497703549060544 164.2221294363257 11.063048016701464 164.2221294363257 15.111482254697288C164.2221294363257 18.919415448851776 166.70730688935285 20.883507306889356 171.19665970772448 21.44467640918581L173.2810020876827 21.725260960334037C175.1248434237996 21.965762004175367 175.8463465553236 22.72734864300627 175.8463465553236 23.929853862212948C175.8463465553236 25.412943632567856 174.8041753653445 26.334864300626307 172.35908141962426 26.334864300626307C169.99415448851778 26.334864300626307 168.15031315240086 25.252609603340296 166.62713987473907 23.48893528183717L163.5006263048017 26.535281837160756C165.58496868475993 28.94029227557412 168.19039665970777 30.38329853862213 172.1586638830898 30.38329853862213zM193.48308977035492 29.902296450939463L207.67265135699375 29.902296450939463C211.80125260960338 29.902296450939463 214.88768267223386 26.374947807933196 214.88768267223386 21.88559498956159C214.88768267223386 17.115657620041755 211.28016701461382 15.392066805845515 208.83507306889354 15.351983298538626L208.83507306889354 15.111482254697288C211.40041753653446 14.95114822546973 213.84551148225472 13.347807933194158 213.84551148225472 9.098956158663883C213.84551148225472 4.769937369519834 211.0396659707725 1.9240083507306893 206.43006263048022 1.9240083507306893L193.48308977035492 1.9240083507306893zM198.77411273486433 17.917327766179543L206.14947807933197 17.917327766179543C208.15365344467645 17.917327766179543 209.35615866388312 19.039665970772447 209.35615866388312 21.003757828810024L209.35615866388312 22.36659707724426C209.35615866388312 24.330688935281838 208.15365344467645 25.412943632567856 206.14947807933197 25.412943632567856L198.77411273486433 25.412943632567856zM198.77411273486433 6.413361169102297L205.3077244258873 6.413361169102297C207.23173277661797 6.413361169102297 208.3540709812109 7.495615866388311 208.3540709812109 9.37954070981211L208.3540709812109 10.622129436325682C208.3540709812109 12.465970772442592 207.23173277661797 13.588308977035492 205.3077244258873 13.588308977035492L198.77411273486433 13.588308977035492zM226.83256784968688 29.902296450939463L226.83256784968688 25.81377870563675L224.0668058455115 25.81377870563675L224.0668058455115 0.2405010438413364L218.93611691022969 0.2405010438413364L218.93611691022969 24.851774530271406C218.93611691022969 28.05845511482255 220.57954070981214 29.902296450939463 224.0668058455115 29.902296450939463zM238.21628392484348 30.38329853862213C244.22881002087686 30.38329853862213 247.95657620041757 26.134446764091866 247.95657620041757 19.40041753653445C247.95657620041757 12.706471816283926 244.22881002087686 8.497703549060544 238.21628392484348 8.497703549060544C232.24384133611696 8.497703549060544 228.51607515657625 12.706471816283926 228.51607515657625 19.40041753653445C228.51607515657625 26.134446764091866 232.24384133611696 30.38329853862213 238.21628392484348 30.38329853862213zM238.21628392484348 26.25469728601253C235.57077244258875 26.25469728601253 233.8872651356994 24.53110647181629 233.8872651356994 21.364509394572025L233.8872651356994 17.476409185803764C233.8872651356994 14.34989561586639 235.57077244258875 12.62630480167015 238.21628392484348 12.62630480167015C240.90187891440505 12.62630480167015 242.58538622129439 14.34989561586639 242.58538622129439 17.476409185803764L242.58538622129439 21.364509394572025C242.58538622129439 24.53110647181629 240.90187891440505 26.25469728601253 238.21628392484348 26.25469728601253zM270.5636743215032 31.66597077244259C270.5636743215032 27.898121085594994 268.35908141962426 25.693528183716076 263.22839248434246 25.693528183716076L257.61670146137794 25.693528183716076C255.772860125261 25.693528183716076 254.89102296450943 25.17244258872652 254.89102296450943 24.130271398747396C254.89102296450943 23.20835073068894 255.57244258872655 22.6070981210856 256.37411273486435 22.246346555323594C257.2960334029228 22.486847599164932 258.37828810020886 22.6070981210856 259.58079331941553 22.6070981210856C265.27265135699383 22.6070981210856 268.2388308977036 19.801252609603345 268.2388308977036 15.59248434237996C268.2388308977036 13.027139874739042 267.1565762004176 10.982881002087685 264.9920668058456 9.780375782881006L264.9920668058456 9.219206680584552L269.4413361169103 9.219206680584552L269.4413361169103 5.291022964509397L266.1945720250523 5.291022964509397C264.2705636743216 5.291022964509397 263.22839248434246 6.2931106471816305 263.22839248434246 8.337369519832988L263.22839248434246 9.018789144050107C262.18622129436335 8.658037578288102 260.863465553236 8.497703549060544 259.58079331941553 8.497703549060544C253.92901878914407 8.497703549060544 250.9227557411274 11.34363256784969 250.9227557411274 15.59248434237996C250.9227557411274 18.358246346555326 252.20542797494784 20.52275574112735 254.7306889352819 21.68517745302714L254.7306889352819 21.845511482254704C252.72651356993742 22.286430062630483 250.8826722338205 23.368684759916494 250.8826722338205 25.533194154488523C250.8826722338205 27.216701461377877 251.84467640918584 28.579540709812115 253.5682672233821 29.020459290187894L253.5682672233821 29.461377870563684C251.2434237995825 29.822129436325685 249.84050104384139 31.144885177453034 249.84050104384139 33.46972860125262C249.84050104384139 36.5561586638831 252.52609603340298 38.4 259.58079331941553 38.4C267.5974947807934 38.4 270.5636743215032 36.03507306889353 270.5636743215032 31.66597077244259zM265.7536534446765 32.26722338204594C265.7536534446765 34.03089770354906 264.2705636743216 34.87265135699374 260.94363256784976 34.87265135699374L258.37828810020886 34.87265135699374C255.17160751565768 34.87265135699374 253.96910229645098 33.910647181628406 253.96910229645098 32.30730688935282C253.96910229645098 31.46555323590815 254.28977035490607 30.703966597077248 255.05135699373702 30.1427974947808L262.18622129436335 30.1427974947808C264.7916492693111 30.1427974947808 265.7536534446765 30.944467640918585 265.7536534446765 32.26722338204594zM259.58079331941553 19.119832985386225C257.1356993736953 19.119832985386225 255.8129436325679 17.997494780793325 255.8129436325679 15.913152400835076L255.8129436325679 15.231732776617957C255.8129436325679 13.10730688935282 257.1356993736953 12.02505219206681 259.58079331941553 12.02505219206681C262.0258872651358 12.02505219206681 263.3486430062631 13.10730688935282 263.3486430062631 15.231732776617957L263.3486430062631 15.913152400835076C263.3486430062631 17.997494780793325 262.0258872651358 19.119832985386225 259.58079331941553 19.119832985386225z"/></g></svg>