<svg xmlns="http://www.w3.org/2000/svg" xmlns:xlink="http://www.w3.org/1999/xlink" width="128" height="128" viewBox="0 0 128 128"><defs><clipPath id="clip"><path d="M67.58422405184227 127.97896286135337C80.74550799261611 128.56523664567572 90.38759676186415 116.76852182061094 100.3532930692662 108.73047493609802C109.07071481646699 101.6992507692501 117.00806983437027 94.0455012207669 121.78351775591763 84.26335579662101C126.55491064576647 74.4895167995216 129.17418244771542 63.77322919400281 127.48646117080568 53.15022350262573C125.80284552470567 42.55305983863497 120.1903395336386 32.840642923159095 112.36737899397825 24.995455920385435C104.71729321148868 17.323634843617405 94.25592985227678 13.442587333901109 83.88205777294526 9.421932011659399C72.30382927562754 4.934498035813522 60.833364629977105 -1.1747420864960978 48.38140256322553 0.19607968769559303C34.98022496563104 1.6713994768270226 22.012466136736652 7.70772609674403 13.162695148819695 17.207342987248722C4.308149956289506 26.712084656105812 -0.21988638725386184 39.53273463546692 0.008210303357144054 52.12135491424005C0.2204504080361317 63.834852723321696 7.617387426346442 73.96490645843106 14.37009962041977 83.84380481030473C20.32674263104049 92.55809162264181 28.486604415337663 99.03018759246875 36.767195819827364 105.89801101901568C46.647140447969456 114.09231887163487 54.376964596649465 127.3906410824018 67.58422405184227 127.97896286135337"/></clipPath></defs><g clip-path="url(#clip)"><path d="M46.3,72.2L28.7,75.4L29.9,80.8Z" fill="rgb(151,208,201)" shape-rendering="crispEdges"/><path d="M46.3,72.2L42.5,54.1L28.7,75.4Z" fill="rgb(154,214,195)" shape-rendering="crispEdges"/><path d="M29.9,80.8L47.6,103.4L46.3,72.2Z" fill="rgb(135,196,196)" shape-rendering="crispEdges"/><path d="M46.3,72.2L49.8,44.9L42.5,54.1Z" fill="rgb(159,217,186)" shape-rendering="crispEdges"/><path d="M52.7,43.4L49.8,44.9L46.3,72.2Z" fill="rgb(159,217,184)" shape-rendering="crispEdges"/><path d="M91.6,58.7L52.7,43.4L46.3,72.2Z" fill="rgb(133,207,193)" shape-rendering="crispEdges"/><path d="M47.6,103.4L58.4,107.6L46.3,72.2Z" fill="rgb(115,180,189)" shape-rendering="crispEdges"/><path d="M26.9,28.3L42.5,54.1L49.8,44.9Z" fill="rgb(184,227,188)" shape-rendering="crispEdges"/><path d="M26.9,28.3L13.7,41.5L42.5,54.1Z" fill="rgb(196,232,195)" shape-rendering="crispEdges"/><path d="M42.5,54.1L13.7,41.5L28.7,75.4Z" fill="rgb(177,224,196)" shape-rendering="crispEdges"/><path d="M28.7,75.4L-9.6,79.3L29.9,80.8Z" fill="rgb(162,212,214)" shape-rendering="crispEdges"/><path d="M13.7,41.5L-9.6,79.3L28.7,75.4Z" fill="rgb(178,224,211)" shape-rendering="crispEdges"/><path d="M29.9,80.8L21.4,125.4L47.6,103.4Z" fill="rgb(133,177,190)" shape-rendering="crispEdges"/><path d="M58.4,107.6L82.2,97.4L46.3,72.2Z" fill="rgb(97,177,195)" shape-rendering="crispEdges"/><path d="M27.4,26.8L26.9,28.3L49.8,44.9Z" fill="rgb(200,233,195)" shape-rendering="crispEdges"/><path d="M52.7,43.4L27.4,26.8L49.8,44.9Z" fill="rgb(184,227,188)" shape-rendering="crispEdges"/><path d="M26.9,28.3L27.4,26.8L13.7,41.5Z" fill="rgb(210,237,203)" shape-rendering="crispEdges"/><path d="M-9.6,79.3L4.7,116L29.9,80.8Z" fill="rgb(156,197,213)" shape-rendering="crispEdges"/><path d="M47.6,103.4L21.4,125.4L58.4,107.6Z" fill="rgb(118,162,181)" shape-rendering="crispEdges"/><path d="M4.7,116L21.4,125.4L29.9,80.8Z" fill="rgb(140,175,197)" shape-rendering="crispEdges"/><path d="M58.4,107.6L72,133.3L82.2,97.4Z" fill="rgb(71,146,187)" shape-rendering="crispEdges"/><path d="M82.2,97.4L91.6,58.7L46.3,72.2Z" fill="rgb(95,187,206)" shape-rendering="crispEdges"/><path d="M52.7,43.4L33.5,13.4L27.4,26.8Z" fill="rgb(200,234,197)" shape-rendering="crispEdges"/><path d="M-23.4,58.4L-19.9,78.4L-9.6,79.3Z" fill="rgb(180,222,222)" shape-rendering="crispEdges"/><path d="M-9.6,79.3L-26.2,119.6L4.7,116Z" fill="rgb(154,183,210)" shape-rendering="crispEdges"/><path d="M50.1,2.8L33.5,13.4L52.7,43.4Z" fill="rgb(197,232,199)" shape-rendering="crispEdges"/><path d="M-22,40.7L-20,46.8L13.7,41.5Z" fill="rgb(213,239,213)" shape-rendering="crispEdges"/><path d="M-20,46.8L-23.4,58.4L-9.6,79.3Z" fill="rgb(191,229,217)" shape-rendering="crispEdges"/><path d="M-20,46.8L-9.6,79.3L13.7,41.5Z" fill="rgb(198,232,214)" shape-rendering="crispEdges"/><path d="M-22,40.7L13.7,41.5L-27.4,11.4Z" fill="rgb(226,244,219)" shape-rendering="crispEdges"/><path d="M58.2,150.3L72,133.3L58.4,107.6Z" fill="rgb(80,131,162)" shape-rendering="crispEdges"/><path d="M22.1,-1.2L13.7,41.5L27.4,26.8Z" fill="rgb(217,240,211)" shape-rendering="crispEdges"/><path d="M-20,46.8L-22,40.7L-23.4,58.4Z" fill="rgb(207,236,210)" shape-rendering="crispEdges"/><path d="M4.7,116L5.3,140L21.4,125.4Z" fill="rgb(134,150,179)" shape-rendering="crispEdges"/><path d="M21.4,125.4L58.2,150.3L58.4,107.6Z" fill="rgb(106,139,158)" shape-rendering="crispEdges"/><path d="M-26.2,119.6L-6.1,130.3L4.7,116Z" fill="rgb(144,160,193)" shape-rendering="crispEdges"/><path d="M-6.1,130.3L5.3,140L4.7,116Z" fill="rgb(140,152,183)" shape-rendering="crispEdges"/><path d="M65.5,-0.6L50.1,2.8L52.7,43.4Z" fill="rgb(187,228,204)" shape-rendering="crispEdges"/><path d="M33.5,13.4L22.1,-1.2L27.4,26.8Z" fill="rgb(219,241,213)" shape-rendering="crispEdges"/><path d="M90.6,129.9L106.4,107.1L82.2,97.4Z" fill="rgb(35,126,183)" shape-rendering="crispEdges"/><path d="M82.2,97.4L121.4,72.8L91.6,58.7Z" fill="rgb(68,159,198)" shape-rendering="crispEdges"/><path d="M72,133.3L90.6,129.9L82.2,97.4Z" fill="rgb(50,128,179)" shape-rendering="crispEdges"/><path d="M5.3,140L22.4,150.9L21.4,125.4Z" fill="rgb(130,148,174)" shape-rendering="crispEdges"/><path d="M72,133.3L71.5,155.8L90.6,129.9Z" fill="rgb(54,121,169)" shape-rendering="crispEdges"/><path d="M22.4,150.9L58.2,150.3L21.4,125.4Z" fill="rgb(119,143,163)" shape-rendering="crispEdges"/><path d="M-54.7,94.8L-26.2,119.6L-19.9,78.4Z" fill="rgb(158,192,214)" shape-rendering="crispEdges"/><path d="M-19.9,78.4L-26.2,119.6L-9.6,79.3Z" fill="rgb(162,199,218)" shape-rendering="crispEdges"/><path d="M-6.1,130.3L3.4,160.6L5.3,140Z" fill="rgb(140,152,184)" shape-rendering="crispEdges"/><path d="M50.1,2.8L22.1,-1.2L33.5,13.4Z" fill="rgb(218,241,213)" shape-rendering="crispEdges"/><path d="M121.4,72.8L104.2,31.6L91.6,58.7Z" fill="rgb(104,164,184)" shape-rendering="crispEdges"/><path d="M91.6,58.7L95.6,20L52.7,43.4Z" fill="rgb(140,203,200)" shape-rendering="crispEdges"/><path d="M104.2,31.6L95.6,20L91.6,58.7Z" fill="rgb(132,183,192)" shape-rendering="crispEdges"/><path d="M95.6,20L65.5,-0.6L52.7,43.4Z" fill="rgb(166,216,208)" shape-rendering="crispEdges"/><path d="M50.1,2.8L32.1,-21.9L22.1,-1.2Z" fill="rgb(223,242,217)" shape-rendering="crispEdges"/><path d="M106.4,107.1L121.4,72.8L82.2,97.4Z" fill="rgb(43,136,188)" shape-rendering="crispEdges"/><path d="M58.3,171L71.5,155.8L58.2,150.3Z" fill="rgb(80,131,162)" shape-rendering="crispEdges"/><path d="M58.2,150.3L71.5,155.8L72,133.3Z" fill="rgb(73,128,164)" shape-rendering="crispEdges"/><path d="M106.4,107.1L124.5,97.8L121.4,72.8Z" fill="rgb(36,119,176)" shape-rendering="crispEdges"/><path d="M146.5,105.8L124.5,97.8L130.8,143.3Z" fill="rgb(9,79,145)" shape-rendering="crispEdges"/><path d="M147.5,87.1L124.5,97.8L146.5,105.8Z" fill="rgb(29,100,159)" shape-rendering="crispEdges"/><path d="M5.3,140L3.4,160.6L22.4,150.9Z" fill="rgb(134,149,178)" shape-rendering="crispEdges"/><path d="M22.4,150.9L58.3,171L58.2,150.3Z" fill="rgb(106,139,157)" shape-rendering="crispEdges"/><path d="M-31.1,140.1L3.4,160.6L-6.1,130.3Z" fill="rgb(141,152,184)" shape-rendering="crispEdges"/><path d="M22.1,-1.2L-27.4,11.4L13.7,41.5Z" fill="rgb(233,246,227)" shape-rendering="crispEdges"/><path d="M-44.3,17.3L-54.7,94.8L-23.4,58.4Z" fill="rgb(197,232,214)" shape-rendering="crispEdges"/><path d="M-54.7,94.8L-31.1,140.1L-26.2,119.6Z" fill="rgb(146,166,198)" shape-rendering="crispEdges"/><path d="M-26.2,119.6L-31.1,140.1L-6.1,130.3Z" fill="rgb(141,152,184)" shape-rendering="crispEdges"/><path d="M-54.7,94.8L-19.9,78.4L-23.4,58.4Z" fill="rgb(175,217,224)" shape-rendering="crispEdges"/><path d="M-44.3,17.3L-23.4,58.4L-22,40.7Z" fill="rgb(218,241,215)" shape-rendering="crispEdges"/><path d="M117.6,10.1L102.8,7.4L95.6,20Z" fill="rgb(145,179,202)" shape-rendering="crispEdges"/><path d="M95.6,20L102.8,7.4L65.5,-0.6Z" fill="rgb(159,202,215)" shape-rendering="crispEdges"/><path d="M117.6,10.1L95.6,20L104.2,31.6Z" fill="rgb(140,177,197)" shape-rendering="crispEdges"/><path d="M20.8,183.8L58.3,171L22.4,150.9Z" fill="rgb(119,144,163)" shape-rendering="crispEdges"/><path d="M124.5,97.8L106.4,107.1L130.8,143.3Z" fill="rgb(10,88,155)" shape-rendering="crispEdges"/><path d="M40.5,-27.4L50.1,2.8L65.5,-0.6Z" fill="rgb(203,235,212)" shape-rendering="crispEdges"/><path d="M40.5,-27.4L32.1,-21.9L50.1,2.8Z" fill="rgb(216,240,214)" shape-rendering="crispEdges"/><path d="M22.1,-1.2L-4.3,-27.2L-27.4,11.4Z" fill="rgb(247,252,240)" shape-rendering="crispEdges"/><path d="M121.4,72.8L131,38.3L104.2,31.6Z" fill="rgb(108,151,169)" shape-rendering="crispEdges"/><path d="M144,57.5L131,38.3L121.4,72.8Z" fill="rgb(91,134,160)" shape-rendering="crispEdges"/><path d="M-47.5,-20L-44.3,17.3L-27.4,11.4Z" fill="rgb(245,251,238)" shape-rendering="crispEdges"/><path d="M-27.4,11.4L-44.3,17.3L-22,40.7Z" fill="rgb(231,246,224)" shape-rendering="crispEdges"/><path d="M131,38.3L117.6,10.1L104.2,31.6Z" fill="rgb(130,160,182)" shape-rendering="crispEdges"/><path d="M82.1,-18.8L40.5,-27.4L65.5,-0.6Z" fill="rgb(189,229,217)" shape-rendering="crispEdges"/><path d="M82.1,-18.8L65.5,-0.6L102.8,7.4Z" fill="rgb(169,211,223)" shape-rendering="crispEdges"/><path d="M32.1,-21.9L-4.3,-27.2L22.1,-1.2Z" fill="rgb(235,247,229)" shape-rendering="crispEdges"/><path d="M112.1,-6.6L82.1,-18.8L102.8,7.4Z" fill="rgb(157,191,214)" shape-rendering="crispEdges"/><path d="M-31.3,180.4L11.4,179.3L3.4,160.6Z" fill="rgb(141,152,184)" shape-rendering="crispEdges"/><path d="M3.4,160.6L11.4,179.3L22.4,150.9Z" fill="rgb(133,149,177)" shape-rendering="crispEdges"/><path d="M147.5,87.1L144,57.5L121.4,72.8Z" fill="rgb(65,124,166)" shape-rendering="crispEdges"/><path d="M131,38.3L141.4,5L117.6,10.1Z" fill="rgb(129,147,173)" shape-rendering="crispEdges"/><path d="M11.4,179.3L20.8,183.8L22.4,150.9Z" fill="rgb(129,147,173)" shape-rendering="crispEdges"/><path d="M106.4,107.1L90.6,129.9L130.8,143.3Z" fill="rgb(14,88,153)" shape-rendering="crispEdges"/><path d="M124.5,97.8L147.5,87.1L121.4,72.8Z" fill="rgb(43,112,166)" shape-rendering="crispEdges"/><path d="M131.7,-9.7L112.1,-6.6L117.6,10.1Z" fill="rgb(145,162,195)" shape-rendering="crispEdges"/><path d="M117.6,10.1L112.1,-6.6L102.8,7.4Z" fill="rgb(148,175,205)" shape-rendering="crispEdges"/><path d="M19.4,-55L-4.3,-27.2L32.1,-21.9Z" fill="rgb(236,248,230)" shape-rendering="crispEdges"/><path d="M130.8,143.3L90.6,129.9L131.9,148.9Z" fill="rgb(9,76,143)" shape-rendering="crispEdges"/><path d="M19.4,-55L-9.9,-27.6L-4.3,-27.2Z" fill="rgb(246,252,239)" shape-rendering="crispEdges"/><path d="M-4.3,-27.2L-9.9,-27.6L-27.4,11.4Z" fill="rgb(247,252,240)" shape-rendering="crispEdges"/><path d="M131.9,148.9L90.6,129.9L103.9,178.7Z" fill="rgb(15,87,152)" shape-rendering="crispEdges"/><path d="M82.1,-18.8L68.6,-45.9L40.5,-27.4Z" fill="rgb(188,228,218)" shape-rendering="crispEdges"/><path d="M40.5,-27.4L19.4,-55L32.1,-21.9Z" fill="rgb(226,244,219)" shape-rendering="crispEdges"/><path d="M112.1,-6.6L87.4,-30.9L82.1,-18.8Z" fill="rgb(161,197,217)" shape-rendering="crispEdges"/><path d="M103.9,178.7L90.6,129.9L71.5,155.8Z" fill="rgb(40,109,164)" shape-rendering="crispEdges"/><path d="M160.1,109.3L158.2,106.5L146.5,105.8Z" fill="rgb(17,89,153)" shape-rendering="crispEdges"/><path d="M103.9,178.7L71.5,155.8L58.3,171Z" fill="rgb(55,121,169)" shape-rendering="crispEdges"/><path d="M20.8,183.8L103.9,178.7L58.3,171Z" fill="rgb(83,132,162)" shape-rendering="crispEdges"/><path d="M160.1,109.3L146.5,105.8L158.7,134.4Z" fill="rgb(9,78,144)" shape-rendering="crispEdges"/><path d="M146.5,105.8L158.2,106.5L147.5,87.1Z" fill="rgb(26,97,157)" shape-rendering="crispEdges"/><path d="M147.5,87.1L173.9,54.1L144,57.5Z" fill="rgb(74,129,164)" shape-rendering="crispEdges"/><path d="M11.4,179.3L-31.3,180.4L20.8,183.8Z" fill="rgb(140,152,184)" shape-rendering="crispEdges"/><path d="M-31.1,140.1L-31.3,180.4L3.4,160.6Z" fill="rgb(141,152,184)" shape-rendering="crispEdges"/><path d="M-54.7,94.8L-31.3,180.4L-31.1,140.1Z" fill="rgb(141,152,184)" shape-rendering="crispEdges"/><path d="M162,3.7L141.4,5L174.9,19.3Z" fill="rgb(135,150,178)" shape-rendering="crispEdges"/><path d="M112.1,-6.6L133,-42.9L87.4,-30.9Z" fill="rgb(151,176,207)" shape-rendering="crispEdges"/><path d="M174.9,19.3L131,38.3L144,57.5Z" fill="rgb(114,142,161)" shape-rendering="crispEdges"/><path d="M133,-42.9L68.6,-45.9L87.4,-30.9Z" fill="rgb(159,194,215)" shape-rendering="crispEdges"/><path d="M87.4,-30.9L68.6,-45.9L82.1,-18.8Z" fill="rgb(172,216,225)" shape-rendering="crispEdges"/><path d="M158.7,134.4L146.5,105.8L130.8,143.3Z" fill="rgb(8,64,129)" shape-rendering="crispEdges"/><path d="M158.2,106.5L173.9,54.1L147.5,87.1Z" fill="rgb(47,116,168)" shape-rendering="crispEdges"/><path d="M141.4,5L131.7,-9.7L117.6,10.1Z" fill="rgb(140,151,183)" shape-rendering="crispEdges"/><path d="M-55.2,-39.8L-47.5,-20L-9.9,-27.6Z" fill="rgb(247,252,240)" shape-rendering="crispEdges"/><path d="M-9.9,-27.6L-47.5,-20L-27.4,11.4Z" fill="rgb(247,252,240)" shape-rendering="crispEdges"/><path d="M-44.3,17.3L-55.2,-39.8L-54.7,94.8Z" fill="rgb(230,246,224)" shape-rendering="crispEdges"/><path d="M68.6,-45.9L19.4,-55L40.5,-27.4Z" fill="rgb(214,239,213)" shape-rendering="crispEdges"/><path d="M155.3,153.2L130.8,143.3L131.9,148.9Z" fill="rgb(8,64,129)" shape-rendering="crispEdges"/><path d="M155.3,153.2L158.7,134.4L130.8,143.3Z" fill="rgb(8,64,129)" shape-rendering="crispEdges"/><path d="M180.2,177.8L173.9,54.1L160.1,109.3Z" fill="rgb(10,81,148)" shape-rendering="crispEdges"/><path d="M160.1,109.3L173.9,54.1L158.2,106.5Z" fill="rgb(38,108,163)" shape-rendering="crispEdges"/><path d="M159.5,156.7L155.3,153.2L131.9,148.9Z" fill="rgb(8,64,129)" shape-rendering="crispEdges"/><path d="M158.7,134.4L180.2,177.8L160.1,109.3Z" fill="rgb(8,64,129)" shape-rendering="crispEdges"/><path d="M174.9,19.3L141.4,5L131,38.3Z" fill="rgb(128,147,171)" shape-rendering="crispEdges"/><path d="M141.4,5L150,-19.3L131.7,-9.7Z" fill="rgb(141,152,184)" shape-rendering="crispEdges"/><path d="M131.7,-9.7L133,-42.9L112.1,-6.6Z" fill="rgb(142,155,187)" shape-rendering="crispEdges"/><path d="M103.9,178.7L159.5,156.7L131.9,148.9Z" fill="rgb(8,64,129)" shape-rendering="crispEdges"/><path d="M155.3,153.2L159.5,156.7L158.7,134.4Z" fill="rgb(8,64,129)" shape-rendering="crispEdges"/><path d="M162,3.7L150,-19.3L141.4,5Z" fill="rgb(141,152,184)" shape-rendering="crispEdges"/><path d="M173.9,54.1L174.9,19.3L144,57.5Z" fill="rgb(109,140,158)" shape-rendering="crispEdges"/><path d="M162,3.7L176.3,-24.3L150,-19.3Z" fill="rgb(141,152,184)" shape-rendering="crispEdges"/><path d="M19.4,-55L-55.2,-39.8L-9.9,-27.6Z" fill="rgb(247,252,240)" shape-rendering="crispEdges"/><path d="M-47.5,-20L-55.2,-39.8L-44.3,17.3Z" fill="rgb(247,252,240)" shape-rendering="crispEdges"/><path d="M150,-19.3L133,-42.9L131.7,-9.7Z" fill="rgb(141,152,184)" shape-rendering="crispEdges"/><path d="M68.6,-45.9L133,-42.9L19.4,-55Z" fill="rgb(178,220,223)" shape-rendering="crispEdges"/><path d="M176.3,-24.3L141.2,-41.8L150,-19.3Z" fill="rgb(141,152,184)" shape-rendering="crispEdges"/><path d="M150,-19.3L141.2,-41.8L133,-42.9Z" fill="rgb(141,152,184)" shape-rendering="crispEdges"/><path d="M180.2,177.8L176.3,-24.3L174.9,19.3Z" fill="rgb(89,134,160)" shape-rendering="crispEdges"/><path d="M174.9,19.3L176.3,-24.3L162,3.7Z" fill="rgb(141,152,184)" shape-rendering="crispEdges"/><path d="M20.8,183.8L180.2,177.8L103.9,178.7Z" fill="rgb(24,95,156)" shape-rendering="crispEdges"/><path d="M103.9,178.7L180.2,177.8L159.5,156.7Z" fill="rgb(8,64,129)" shape-rendering="crispEdges"/><path d="M159.5,156.7L180.2,177.8L158.7,134.4Z" fill="rgb(8,64,129)" shape-rendering="crispEdges"/><path d="M173.9,54.1L180.2,177.8L174.9,19.3Z" fill="rgb(46,115,167)" shape-rendering="crispEdges"/></g></svg>