<svg xmlns="http://www.w3.org/2000/svg" xmlns:xlink="http://www.w3.org/1999/xlink" width="256" height="256" viewBox="0 0 256 256"><defs><clipPath id="clip"><path d="M135.16844810368454 255.95792572270673C161.49101598523222 257.13047329135145 180.7751935237283 233.53704364122189 200.7065861385324 217.46094987219604C218.14142963293398 203.3985015385002 234.01613966874055 188.0910024415338 243.56703551183526 168.52671159324203C253.10982129153294 148.9790335990432 258.34836489543085 127.54645838800562 254.97292234161137 106.30044700525146C251.60569104941135 85.10611967726994 240.3806790672772 65.68128584631819 224.7347579879565 49.99091184077087C209.43458642297736 34.64726968723481 188.51185970455356 26.885174667802218 167.76411554589052 18.843864023318798C144.60765855125507 9.868996071627045 121.66672925995421 -2.3494841729921956 96.76280512645106 0.39215937539118606C69.96044993126208 3.3427989536540452 44.024932273473304 15.41545219348806 26.32539029763939 34.414685974497445C8.616299912579011 53.424169312211625 -0.4397727745077237 79.06546927093385 0.01642060671428811 104.2427098284801C0.4409008160722634 127.66970544664339 15.234774852692883 147.92981291686212 28.74019924083954 167.68760962060946C40.65348526208098 185.11618324528362 56.973208830675325 198.0603751849375 73.53439163965473 211.79602203803137C93.29428089593891 228.18463774326975 108.75392919329893 254.7812821648036 135.16844810368454 255.95792572270673"/></clipPath></defs><g clip-path="url(#clip)"><path d="M92.7,144.3L57.4,150.8L59.8,161.6Z" fill="rgb(151,208,201)" shape-rendering="crispEdges"/><path d="M92.7,144.3L84.9,108.1L57.4,150.8Z" fill="rgb(154,214,195)" shape-rendering="crispEdges"/><path d="M59.8,161.6L95.2,206.8L92.7,144.3Z" fill="rgb(135,196,196)" shape-rendering="crispEdges"/><path d="M92.7,144.3L99.5,89.8L84.9,108.1Z" fill="rgb(159,217,186)" shape-rendering="crispEdges"/><path d="M105.4,86.7L99.5,89.8L92.7,144.3Z" fill="rgb(159,217,184)" shape-rendering="crispEdges"/><path d="M183.2,117.4L105.4,86.7L92.7,144.3Z" fill="rgb(133,207,193)" shape-rendering="crispEdges"/><path d="M95.2,206.8L116.7,215.2L92.7,144.3Z" fill="rgb(115,180,189)" shape-rendering="crispEdges"/><path d="M53.9,56.6L84.9,108.1L99.5,89.8Z" fill="rgb(184,227,188)" shape-rendering="crispEdges"/><path d="M53.9,56.6L27.4,83.1L84.9,108.1Z" fill="rgb(196,232,195)" shape-rendering="crispEdges"/><path d="M84.9,108.1L27.4,83.1L57.4,150.8Z" fill="rgb(177,224,196)" shape-rendering="crispEdges"/><path d="M57.4,150.8L-19.2,158.6L59.8,161.6Z" fill="rgb(162,212,214)" shape-rendering="crispEdges"/><path d="M27.4,83.1L-19.2,158.6L57.4,150.8Z" fill="rgb(178,224,211)" shape-rendering="crispEdges"/><path d="M59.8,161.6L42.9,250.8L95.2,206.8Z" fill="rgb(133,177,190)" shape-rendering="crispEdges"/><path d="M116.7,215.2L164.4,194.8L92.7,144.3Z" fill="rgb(97,177,195)" shape-rendering="crispEdges"/><path d="M54.7,53.6L53.9,56.6L99.5,89.8Z" fill="rgb(200,233,195)" shape-rendering="crispEdges"/><path d="M105.4,86.7L54.7,53.6L99.5,89.8Z" fill="rgb(184,227,188)" shape-rendering="crispEdges"/><path d="M53.9,56.6L54.7,53.6L27.4,83.1Z" fill="rgb(210,237,203)" shape-rendering="crispEdges"/><path d="M-19.2,158.6L9.4,231.9L59.8,161.6Z" fill="rgb(156,197,213)" shape-rendering="crispEdges"/><path d="M95.2,206.8L42.9,250.8L116.7,215.2Z" fill="rgb(118,162,181)" shape-rendering="crispEdges"/><path d="M9.4,231.9L42.9,250.8L59.8,161.6Z" fill="rgb(140,175,197)" shape-rendering="crispEdges"/><path d="M116.7,215.2L144.1,266.6L164.4,194.8Z" fill="rgb(71,146,187)" shape-rendering="crispEdges"/><path d="M164.4,194.8L183.2,117.4L92.7,144.3Z" fill="rgb(95,187,206)" shape-rendering="crispEdges"/><path d="M105.4,86.7L67,26.9L54.7,53.6Z" fill="rgb(200,234,197)" shape-rendering="crispEdges"/><path d="M-46.8,116.8L-39.7,156.9L-19.2,158.6Z" fill="rgb(180,222,222)" shape-rendering="crispEdges"/><path d="M-19.2,158.6L-52.4,239.2L9.4,231.9Z" fill="rgb(154,183,210)" shape-rendering="crispEdges"/><path d="M100.2,5.5L67,26.9L105.4,86.7Z" fill="rgb(197,232,199)" shape-rendering="crispEdges"/><path d="M-43.9,81.5L-40,93.5L27.4,83.1Z" fill="rgb(213,239,213)" shape-rendering="crispEdges"/><path d="M-40,93.5L-46.8,116.8L-19.2,158.6Z" fill="rgb(191,229,217)" shape-rendering="crispEdges"/><path d="M-40,93.5L-19.2,158.6L27.4,83.1Z" fill="rgb(198,232,214)" shape-rendering="crispEdges"/><path d="M-43.9,81.5L27.4,83.1L-54.9,22.8Z" fill="rgb(226,244,219)" shape-rendering="crispEdges"/><path d="M116.5,300.6L144.1,266.6L116.7,215.2Z" fill="rgb(80,131,162)" shape-rendering="crispEdges"/><path d="M44.1,-2.4L27.4,83.1L54.7,53.6Z" fill="rgb(217,240,211)" shape-rendering="crispEdges"/><path d="M-40,93.5L-43.9,81.5L-46.8,116.8Z" fill="rgb(207,236,210)" shape-rendering="crispEdges"/><path d="M9.4,231.9L10.6,280L42.9,250.8Z" fill="rgb(134,150,179)" shape-rendering="crispEdges"/><path d="M42.9,250.8L116.5,300.6L116.7,215.2Z" fill="rgb(106,139,158)" shape-rendering="crispEdges"/><path d="M-52.4,239.2L-12.2,260.5L9.4,231.9Z" fill="rgb(144,160,193)" shape-rendering="crispEdges"/><path d="M-12.2,260.5L10.6,280L9.4,231.9Z" fill="rgb(140,152,183)" shape-rendering="crispEdges"/><path d="M131,-1.3L100.2,5.5L105.4,86.7Z" fill="rgb(187,228,204)" shape-rendering="crispEdges"/><path d="M67,26.9L44.1,-2.4L54.7,53.6Z" fill="rgb(219,241,213)" shape-rendering="crispEdges"/><path d="M181.2,259.9L212.8,214.1L164.4,194.8Z" fill="rgb(35,126,183)" shape-rendering="crispEdges"/><path d="M164.4,194.8L242.9,145.7L183.2,117.4Z" fill="rgb(68,159,198)" shape-rendering="crispEdges"/><path d="M144.1,266.6L181.2,259.9L164.4,194.8Z" fill="rgb(50,128,179)" shape-rendering="crispEdges"/><path d="M10.6,280L44.8,301.9L42.9,250.8Z" fill="rgb(130,148,174)" shape-rendering="crispEdges"/><path d="M144.1,266.6L143,311.5L181.2,259.9Z" fill="rgb(54,121,169)" shape-rendering="crispEdges"/><path d="M44.8,301.9L116.5,300.6L42.9,250.8Z" fill="rgb(119,143,163)" shape-rendering="crispEdges"/><path d="M-109.3,189.6L-52.4,239.2L-39.7,156.9Z" fill="rgb(158,192,214)" shape-rendering="crispEdges"/><path d="M-39.7,156.9L-52.4,239.2L-19.2,158.6Z" fill="rgb(162,199,218)" shape-rendering="crispEdges"/><path d="M-12.2,260.5L6.8,321.2L10.6,280Z" fill="rgb(140,152,184)" shape-rendering="crispEdges"/><path d="M100.2,5.5L44.1,-2.4L67,26.9Z" fill="rgb(218,241,213)" shape-rendering="crispEdges"/><path d="M242.9,145.7L208.3,63.2L183.2,117.4Z" fill="rgb(104,164,184)" shape-rendering="crispEdges"/><path d="M183.2,117.4L191.2,39.9L105.4,86.7Z" fill="rgb(140,203,200)" shape-rendering="crispEdges"/><path d="M208.3,63.2L191.2,39.9L183.2,117.4Z" fill="rgb(132,183,192)" shape-rendering="crispEdges"/><path d="M191.2,39.9L131,-1.3L105.4,86.7Z" fill="rgb(166,216,208)" shape-rendering="crispEdges"/><path d="M100.2,5.5L64.2,-43.8L44.1,-2.4Z" fill="rgb(223,242,217)" shape-rendering="crispEdges"/><path d="M212.8,214.1L242.9,145.7L164.4,194.8Z" fill="rgb(43,136,188)" shape-rendering="crispEdges"/><path d="M116.6,342L143,311.5L116.5,300.6Z" fill="rgb(80,131,162)" shape-rendering="crispEdges"/><path d="M116.5,300.6L143,311.5L144.1,266.6Z" fill="rgb(73,128,164)" shape-rendering="crispEdges"/><path d="M212.8,214.1L249,195.6L242.9,145.7Z" fill="rgb(36,119,176)" shape-rendering="crispEdges"/><path d="M292.9,211.6L249,195.6L261.6,286.7Z" fill="rgb(9,79,145)" shape-rendering="crispEdges"/><path d="M295,174.2L249,195.6L292.9,211.6Z" fill="rgb(29,100,159)" shape-rendering="crispEdges"/><path d="M10.6,280L6.8,321.2L44.8,301.9Z" fill="rgb(134,149,178)" shape-rendering="crispEdges"/><path d="M44.8,301.9L116.6,342L116.5,300.6Z" fill="rgb(106,139,157)" shape-rendering="crispEdges"/><path d="M-62.2,280.1L6.8,321.2L-12.2,260.5Z" fill="rgb(141,152,184)" shape-rendering="crispEdges"/><path d="M44.1,-2.4L-54.9,22.8L27.4,83.1Z" fill="rgb(233,246,227)" shape-rendering="crispEdges"/><path d="M-88.6,34.7L-109.3,189.6L-46.8,116.8Z" fill="rgb(197,232,214)" shape-rendering="crispEdges"/><path d="M-109.3,189.6L-62.2,280.1L-52.4,239.2Z" fill="rgb(146,166,198)" shape-rendering="crispEdges"/><path d="M-52.4,239.2L-62.2,280.1L-12.2,260.5Z" fill="rgb(141,152,184)" shape-rendering="crispEdges"/><path d="M-109.3,189.6L-39.7,156.9L-46.8,116.8Z" fill="rgb(175,217,224)" shape-rendering="crispEdges"/><path d="M-88.6,34.7L-46.8,116.8L-43.9,81.5Z" fill="rgb(218,241,215)" shape-rendering="crispEdges"/><path d="M235.3,20.2L205.7,14.8L191.2,39.9Z" fill="rgb(145,179,202)" shape-rendering="crispEdges"/><path d="M191.2,39.9L205.7,14.8L131,-1.3Z" fill="rgb(159,202,215)" shape-rendering="crispEdges"/><path d="M235.3,20.2L191.2,39.9L208.3,63.2Z" fill="rgb(140,177,197)" shape-rendering="crispEdges"/><path d="M41.5,367.6L116.6,342L44.8,301.9Z" fill="rgb(119,144,163)" shape-rendering="crispEdges"/><path d="M249,195.6L212.8,214.1L261.6,286.7Z" fill="rgb(10,88,155)" shape-rendering="crispEdges"/><path d="M81.1,-54.8L100.2,5.5L131,-1.3Z" fill="rgb(203,235,212)" shape-rendering="crispEdges"/><path d="M81.1,-54.8L64.2,-43.8L100.2,5.5Z" fill="rgb(216,240,214)" shape-rendering="crispEdges"/><path d="M44.1,-2.4L-8.6,-54.4L-54.9,22.8Z" fill="rgb(247,252,240)" shape-rendering="crispEdges"/><path d="M242.9,145.7L262.1,76.6L208.3,63.2Z" fill="rgb(108,151,169)" shape-rendering="crispEdges"/><path d="M288,115L262.1,76.6L242.9,145.7Z" fill="rgb(91,134,160)" shape-rendering="crispEdges"/><path d="M-95,-39.9L-88.6,34.7L-54.9,22.8Z" fill="rgb(245,251,238)" shape-rendering="crispEdges"/><path d="M-54.9,22.8L-88.6,34.7L-43.9,81.5Z" fill="rgb(231,246,224)" shape-rendering="crispEdges"/><path d="M262.1,76.6L235.3,20.2L208.3,63.2Z" fill="rgb(130,160,182)" shape-rendering="crispEdges"/><path d="M164.2,-37.6L81.1,-54.8L131,-1.3Z" fill="rgb(189,229,217)" shape-rendering="crispEdges"/><path d="M164.2,-37.6L131,-1.3L205.7,14.8Z" fill="rgb(169,211,223)" shape-rendering="crispEdges"/><path d="M64.2,-43.8L-8.6,-54.4L44.1,-2.4Z" fill="rgb(235,247,229)" shape-rendering="crispEdges"/><path d="M224.2,-13.2L164.2,-37.6L205.7,14.8Z" fill="rgb(157,191,214)" shape-rendering="crispEdges"/><path d="M-62.6,360.9L22.8,358.6L6.8,321.2Z" fill="rgb(141,152,184)" shape-rendering="crispEdges"/><path d="M6.8,321.2L22.8,358.6L44.8,301.9Z" fill="rgb(133,149,177)" shape-rendering="crispEdges"/><path d="M295,174.2L288,115L242.9,145.7Z" fill="rgb(65,124,166)" shape-rendering="crispEdges"/><path d="M262.1,76.6L282.8,9.9L235.3,20.2Z" fill="rgb(129,147,173)" shape-rendering="crispEdges"/><path d="M22.8,358.6L41.5,367.6L44.8,301.9Z" fill="rgb(129,147,173)" shape-rendering="crispEdges"/><path d="M212.8,214.1L181.2,259.9L261.6,286.7Z" fill="rgb(14,88,153)" shape-rendering="crispEdges"/><path d="M249,195.6L295,174.2L242.9,145.7Z" fill="rgb(43,112,166)" shape-rendering="crispEdges"/><path d="M263.3,-19.4L224.2,-13.2L235.3,20.2Z" fill="rgb(145,162,195)" shape-rendering="crispEdges"/><path d="M235.3,20.2L224.2,-13.2L205.7,14.8Z" fill="rgb(148,175,205)" shape-rendering="crispEdges"/><path d="M38.8,-109.9L-8.6,-54.4L64.2,-43.8Z" fill="rgb(236,248,230)" shape-rendering="crispEdges"/><path d="M261.6,286.7L181.2,259.9L263.9,297.8Z" fill="rgb(9,76,143)" shape-rendering="crispEdges"/><path d="M38.8,-109.9L-19.8,-55.2L-8.6,-54.4Z" fill="rgb(246,252,239)" shape-rendering="crispEdges"/><path d="M-8.6,-54.4L-19.8,-55.2L-54.9,22.8Z" fill="rgb(247,252,240)" shape-rendering="crispEdges"/><path d="M263.9,297.8L181.2,259.9L207.8,357.4Z" fill="rgb(15,87,152)" shape-rendering="crispEdges"/><path d="M164.2,-37.6L137.2,-91.7L81.1,-54.8Z" fill="rgb(188,228,218)" shape-rendering="crispEdges"/><path d="M81.1,-54.8L38.8,-109.9L64.2,-43.8Z" fill="rgb(226,244,219)" shape-rendering="crispEdges"/><path d="M224.2,-13.2L174.9,-61.7L164.2,-37.6Z" fill="rgb(161,197,217)" shape-rendering="crispEdges"/><path d="M207.8,357.4L181.2,259.9L143,311.5Z" fill="rgb(40,109,164)" shape-rendering="crispEdges"/><path d="M320.1,218.6L316.4,213L292.9,211.6Z" fill="rgb(17,89,153)" shape-rendering="crispEdges"/><path d="M207.8,357.4L143,311.5L116.6,342Z" fill="rgb(55,121,169)" shape-rendering="crispEdges"/><path d="M41.5,367.6L207.8,357.4L116.6,342Z" fill="rgb(83,132,162)" shape-rendering="crispEdges"/><path d="M320.1,218.6L292.9,211.6L317.4,268.8Z" fill="rgb(9,78,144)" shape-rendering="crispEdges"/><path d="M292.9,211.6L316.4,213L295,174.2Z" fill="rgb(26,97,157)" shape-rendering="crispEdges"/><path d="M295,174.2L347.9,108.3L288,115Z" fill="rgb(74,129,164)" shape-rendering="crispEdges"/><path d="M22.8,358.6L-62.6,360.9L41.5,367.6Z" fill="rgb(140,152,184)" shape-rendering="crispEdges"/><path d="M-62.2,280.1L-62.6,360.9L6.8,321.2Z" fill="rgb(141,152,184)" shape-rendering="crispEdges"/><path d="M-109.3,189.6L-62.6,360.9L-62.2,280.1Z" fill="rgb(141,152,184)" shape-rendering="crispEdges"/><path d="M323.9,7.3L282.8,9.9L349.8,38.6Z" fill="rgb(135,150,178)" shape-rendering="crispEdges"/><path d="M224.2,-13.2L266,-85.9L174.9,-61.7Z" fill="rgb(151,176,207)" shape-rendering="crispEdges"/><path d="M349.8,38.6L262.1,76.6L288,115Z" fill="rgb(114,142,161)" shape-rendering="crispEdges"/><path d="M266,-85.9L137.2,-91.7L174.9,-61.7Z" fill="rgb(159,194,215)" shape-rendering="crispEdges"/><path d="M174.9,-61.7L137.2,-91.7L164.2,-37.6Z" fill="rgb(172,216,225)" shape-rendering="crispEdges"/><path d="M317.4,268.8L292.9,211.6L261.6,286.7Z" fill="rgb(8,64,129)" shape-rendering="crispEdges"/><path d="M316.4,213L347.9,108.3L295,174.2Z" fill="rgb(47,116,168)" shape-rendering="crispEdges"/><path d="M282.8,9.9L263.3,-19.4L235.3,20.2Z" fill="rgb(140,151,183)" shape-rendering="crispEdges"/><path d="M-110.3,-79.5L-95,-39.9L-19.8,-55.2Z" fill="rgb(247,252,240)" shape-rendering="crispEdges"/><path d="M-19.8,-55.2L-95,-39.9L-54.9,22.8Z" fill="rgb(247,252,240)" shape-rendering="crispEdges"/><path d="M-88.6,34.7L-110.3,-79.5L-109.3,189.6Z" fill="rgb(230,246,224)" shape-rendering="crispEdges"/><path d="M137.2,-91.7L38.8,-109.9L81.1,-54.8Z" fill="rgb(214,239,213)" shape-rendering="crispEdges"/><path d="M310.6,306.5L261.6,286.7L263.9,297.8Z" fill="rgb(8,64,129)" shape-rendering="crispEdges"/><path d="M310.6,306.5L317.4,268.8L261.6,286.7Z" fill="rgb(8,64,129)" shape-rendering="crispEdges"/><path d="M360.5,355.6L347.9,108.3L320.1,218.6Z" fill="rgb(10,81,148)" shape-rendering="crispEdges"/><path d="M320.1,218.6L347.9,108.3L316.4,213Z" fill="rgb(38,108,163)" shape-rendering="crispEdges"/><path d="M319,313.5L310.6,306.5L263.9,297.8Z" fill="rgb(8,64,129)" shape-rendering="crispEdges"/><path d="M317.4,268.8L360.5,355.6L320.1,218.6Z" fill="rgb(8,64,129)" shape-rendering="crispEdges"/><path d="M349.8,38.6L282.8,9.9L262.1,76.6Z" fill="rgb(128,147,171)" shape-rendering="crispEdges"/><path d="M282.8,9.9L300,-38.7L263.3,-19.4Z" fill="rgb(141,152,184)" shape-rendering="crispEdges"/><path d="M263.3,-19.4L266,-85.9L224.2,-13.2Z" fill="rgb(142,155,187)" shape-rendering="crispEdges"/><path d="M207.8,357.4L319,313.5L263.9,297.8Z" fill="rgb(8,64,129)" shape-rendering="crispEdges"/><path d="M310.6,306.5L319,313.5L317.4,268.8Z" fill="rgb(8,64,129)" shape-rendering="crispEdges"/><path d="M323.9,7.3L300,-38.7L282.8,9.9Z" fill="rgb(141,152,184)" shape-rendering="crispEdges"/><path d="M347.9,108.3L349.8,38.6L288,115Z" fill="rgb(109,140,158)" shape-rendering="crispEdges"/><path d="M323.9,7.3L352.6,-48.5L300,-38.7Z" fill="rgb(141,152,184)" shape-rendering="crispEdges"/><path d="M38.8,-109.9L-110.3,-79.5L-19.8,-55.2Z" fill="rgb(247,252,240)" shape-rendering="crispEdges"/><path d="M-95,-39.9L-110.3,-79.5L-88.6,34.7Z" fill="rgb(247,252,240)" shape-rendering="crispEdges"/><path d="M300,-38.7L266,-85.9L263.3,-19.4Z" fill="rgb(141,152,184)" shape-rendering="crispEdges"/><path d="M137.2,-91.7L266,-85.9L38.8,-109.9Z" fill="rgb(178,220,223)" shape-rendering="crispEdges"/><path d="M352.6,-48.5L282.4,-83.7L300,-38.7Z" fill="rgb(141,152,184)" shape-rendering="crispEdges"/><path d="M300,-38.7L282.4,-83.7L266,-85.9Z" fill="rgb(141,152,184)" shape-rendering="crispEdges"/><path d="M360.5,355.6L352.6,-48.5L349.8,38.6Z" fill="rgb(89,134,160)" shape-rendering="crispEdges"/><path d="M349.8,38.6L352.6,-48.5L323.9,7.3Z" fill="rgb(141,152,184)" shape-rendering="crispEdges"/><path d="M41.5,367.6L360.5,355.6L207.8,357.4Z" fill="rgb(24,95,156)" shape-rendering="crispEdges"/><path d="M207.8,357.4L360.5,355.6L319,313.5Z" fill="rgb(8,64,129)" shape-rendering="crispEdges"/><path d="M319,313.5L360.5,355.6L317.4,268.8Z" fill="rgb(8,64,129)" shape-rendering="crispEdges"/><path d="M347.9,108.3L360.5,355.6L349.8,38.6Z" fill="rgb(46,115,167)" shape-rendering="crispEdges"/></g></svg>