<svg xmlns="https://www.w3.org/2000/svg" xmlns:xlink="https://www.w3.org/1999/xlink" width="512" height="108" viewBox="0 0 512 108"><defs><clipPath id="clip"><path d="M56.675342218493675 107.3216659463501C67.71224146299703 107.81330830558932 75.79798467252242 97.92072080984963 84.15510139009157 91.18010842080129C91.46542961708371 85.28380582264805 98.12160298091896 78.86546069846365 102.12623792342688 70.66226761128303C106.12747236363643 62.46604019696577 108.3239631545174 53.47948636912725 106.90865977151311 44.57115766676657C105.4967993226318 35.68449978723897 100.79021724360886 27.53978021435401 94.22997375532195 20.96089787327377C87.81470102257818 14.52739817619426 79.04192369512755 11.272796989818609 70.34251553478538 7.901122319767478C60.633148125816646 4.138012513714625 51.014150226266885 -0.9851250155592898 40.572080034212796 0.16443013969826253C29.334008766399297 1.4016161117766157 18.459397424102647 6.463609228157954 11.038082667115088 14.4298771814742C3.6127643178088786 22.40044271415887 -0.18439416034785625 33.15169029061171 0.006885064658386096 43.708360465752804C0.1848671415990572 53.53116314224786 6.387852272564003 62.02610808218911 12.050597977960157 70.31043704636684C17.04576934874288 77.61813635353744 23.888534292317676 83.04556056542903 30.832541687608295 88.8048372081136C39.11774804686453 95.67648822292203 45.59988844369985 106.8283061626956 56.675342218493675 107.3216659463501"/></clipPath></defs><g clip-path="url(#clip)"><path d="M38.9,60.5L24.1,63.2L25.1,67.7Z" fill="rgb(151,208,201)" shape-rendering="crispEdges"/><path d="M38.9,60.5L35.6,45.3L24.1,63.2Z" fill="rgb(154,214,195)" shape-rendering="crispEdges"/><path d="M25.1,67.7L39.9,86.7L38.9,60.5Z" fill="rgb(135,196,196)" shape-rendering="crispEdges"/><path d="M38.9,60.5L41.7,37.7L35.6,45.3Z" fill="rgb(159,217,186)" shape-rendering="crispEdges"/><path d="M44.2,36.4L41.7,37.7L38.9,60.5Z" fill="rgb(159,217,184)" shape-rendering="crispEdges"/><path d="M76.8,49.2L44.2,36.4L38.9,60.5Z" fill="rgb(133,207,193)" shape-rendering="crispEdges"/><path d="M39.9,86.7L48.9,90.2L38.9,60.5Z" fill="rgb(115,180,189)" shape-rendering="crispEdges"/><path d="M22.6,23.7L35.6,45.3L41.7,37.7Z" fill="rgb(184,227,188)" shape-rendering="crispEdges"/><path d="M22.6,23.7L11.5,34.8L35.6,45.3Z" fill="rgb(196,232,195)" shape-rendering="crispEdges"/><path d="M35.6,45.3L11.5,34.8L24.1,63.2Z" fill="rgb(177,224,196)" shape-rendering="crispEdges"/><path d="M24.1,63.2L-8.1,66.5L25.1,67.7Z" fill="rgb(162,212,214)" shape-rendering="crispEdges"/><path d="M11.5,34.8L-8.1,66.5L24.1,63.2Z" fill="rgb(178,224,211)" shape-rendering="crispEdges"/><path d="M25.1,67.7L18,105.1L39.9,86.7Z" fill="rgb(133,177,190)" shape-rendering="crispEdges"/><path d="M48.9,90.2L68.9,81.7L38.9,60.5Z" fill="rgb(97,177,195)" shape-rendering="crispEdges"/><path d="M22.9,22.5L22.6,23.7L41.7,37.7Z" fill="rgb(200,233,195)" shape-rendering="crispEdges"/><path d="M44.2,36.4L22.9,22.5L41.7,37.7Z" fill="rgb(184,227,188)" shape-rendering="crispEdges"/><path d="M22.6,23.7L22.9,22.5L11.5,34.8Z" fill="rgb(210,237,203)" shape-rendering="crispEdges"/><path d="M-8.1,66.5L3.9,97.2L25.1,67.7Z" fill="rgb(156,197,213)" shape-rendering="crispEdges"/><path d="M39.9,86.7L18,105.1L48.9,90.2Z" fill="rgb(118,162,181)" shape-rendering="crispEdges"/><path d="M3.9,97.2L18,105.1L25.1,67.7Z" fill="rgb(140,175,197)" shape-rendering="crispEdges"/><path d="M48.9,90.2L60.4,111.8L68.9,81.7Z" fill="rgb(71,146,187)" shape-rendering="crispEdges"/><path d="M68.9,81.7L76.8,49.2L38.9,60.5Z" fill="rgb(95,187,206)" shape-rendering="crispEdges"/><path d="M44.2,36.4L28.1,11.3L22.9,22.5Z" fill="rgb(200,234,197)" shape-rendering="crispEdges"/><path d="M-19.6,49L-16.7,65.8L-8.1,66.5Z" fill="rgb(180,222,222)" shape-rendering="crispEdges"/><path d="M-8.1,66.5L-22,100.3L3.9,97.2Z" fill="rgb(154,183,210)" shape-rendering="crispEdges"/><path d="M42,2.3L28.1,11.3L44.2,36.4Z" fill="rgb(197,232,199)" shape-rendering="crispEdges"/><path d="M-18.4,34.2L-16.8,39.2L11.5,34.8Z" fill="rgb(213,239,213)" shape-rendering="crispEdges"/><path d="M-16.8,39.2L-19.6,49L-8.1,66.5Z" fill="rgb(191,229,217)" shape-rendering="crispEdges"/><path d="M-16.8,39.2L-8.1,66.5L11.5,34.8Z" fill="rgb(198,232,214)" shape-rendering="crispEdges"/><path d="M-18.4,34.2L11.5,34.8L-23,9.6Z" fill="rgb(226,244,219)" shape-rendering="crispEdges"/><path d="M48.8,126L60.4,111.8L48.9,90.2Z" fill="rgb(80,131,162)" shape-rendering="crispEdges"/><path d="M18.5,-1L11.5,34.8L22.9,22.5Z" fill="rgb(217,240,211)" shape-rendering="crispEdges"/><path d="M-16.8,39.2L-18.4,34.2L-19.6,49Z" fill="rgb(207,236,210)" shape-rendering="crispEdges"/><path d="M3.9,97.2L4.4,117.4L18,105.1Z" fill="rgb(134,150,179)" shape-rendering="crispEdges"/><path d="M18,105.1L48.8,126L48.9,90.2Z" fill="rgb(106,139,158)" shape-rendering="crispEdges"/><path d="M-22,100.3L-5.1,109.2L3.9,97.2Z" fill="rgb(144,160,193)" shape-rendering="crispEdges"/><path d="M-5.1,109.2L4.4,117.4L3.9,97.2Z" fill="rgb(140,152,183)" shape-rendering="crispEdges"/><path d="M54.9,-0.5L42,2.3L44.2,36.4Z" fill="rgb(187,228,204)" shape-rendering="crispEdges"/><path d="M28.1,11.3L18.5,-1L22.9,22.5Z" fill="rgb(219,241,213)" shape-rendering="crispEdges"/><path d="M76,109L89.2,89.8L68.9,81.7Z" fill="rgb(35,126,183)" shape-rendering="crispEdges"/><path d="M68.9,81.7L101.8,61.1L76.8,49.2Z" fill="rgb(68,159,198)" shape-rendering="crispEdges"/><path d="M60.4,111.8L76,109L68.9,81.7Z" fill="rgb(50,128,179)" shape-rendering="crispEdges"/><path d="M4.4,117.4L18.8,126.6L18,105.1Z" fill="rgb(130,148,174)" shape-rendering="crispEdges"/><path d="M60.4,111.8L60,130.6L76,109Z" fill="rgb(54,121,169)" shape-rendering="crispEdges"/><path d="M18.8,126.6L48.8,126L18,105.1Z" fill="rgb(119,143,163)" shape-rendering="crispEdges"/><path d="M-45.8,79.5L-22,100.3L-16.7,65.8Z" fill="rgb(158,192,214)" shape-rendering="crispEdges"/><path d="M-16.7,65.8L-22,100.3L-8.1,66.5Z" fill="rgb(162,199,218)" shape-rendering="crispEdges"/><path d="M-5.1,109.2L2.8,134.7L4.4,117.4Z" fill="rgb(140,152,184)" shape-rendering="crispEdges"/><path d="M42,2.3L18.5,-1L28.1,11.3Z" fill="rgb(218,241,213)" shape-rendering="crispEdges"/><path d="M101.8,61.1L87.3,26.5L76.8,49.2Z" fill="rgb(104,164,184)" shape-rendering="crispEdges"/><path d="M76.8,49.2L80.2,16.7L44.2,36.4Z" fill="rgb(140,203,200)" shape-rendering="crispEdges"/><path d="M87.3,26.5L80.2,16.7L76.8,49.2Z" fill="rgb(132,183,192)" shape-rendering="crispEdges"/><path d="M80.2,16.7L54.9,-0.5L44.2,36.4Z" fill="rgb(166,216,208)" shape-rendering="crispEdges"/><path d="M42,2.3L26.9,-18.4L18.5,-1Z" fill="rgb(223,242,217)" shape-rendering="crispEdges"/><path d="M89.2,89.8L101.8,61.1L68.9,81.7Z" fill="rgb(43,136,188)" shape-rendering="crispEdges"/><path d="M48.9,143.4L60,130.6L48.8,126Z" fill="rgb(80,131,162)" shape-rendering="crispEdges"/><path d="M48.8,126L60,130.6L60.4,111.8Z" fill="rgb(73,128,164)" shape-rendering="crispEdges"/><path d="M89.2,89.8L104.4,82L101.8,61.1Z" fill="rgb(36,119,176)" shape-rendering="crispEdges"/><path d="M122.8,88.7L104.4,82L109.7,120.2Z" fill="rgb(9,79,145)" shape-rendering="crispEdges"/><path d="M123.7,73.1L104.4,82L122.8,88.7Z" fill="rgb(29,100,159)" shape-rendering="crispEdges"/><path d="M4.4,117.4L2.8,134.7L18.8,126.6Z" fill="rgb(134,149,178)" shape-rendering="crispEdges"/><path d="M18.8,126.6L48.9,143.4L48.8,126Z" fill="rgb(106,139,157)" shape-rendering="crispEdges"/><path d="M-26.1,117.4L2.8,134.7L-5.1,109.2Z" fill="rgb(141,152,184)" shape-rendering="crispEdges"/><path d="M18.5,-1L-23,9.6L11.5,34.8Z" fill="rgb(233,246,227)" shape-rendering="crispEdges"/><path d="M-37.2,14.5L-45.8,79.5L-19.6,49Z" fill="rgb(197,232,214)" shape-rendering="crispEdges"/><path d="M-45.8,79.5L-26.1,117.4L-22,100.3Z" fill="rgb(146,166,198)" shape-rendering="crispEdges"/><path d="M-22,100.3L-26.1,117.4L-5.1,109.2Z" fill="rgb(141,152,184)" shape-rendering="crispEdges"/><path d="M-45.8,79.5L-16.7,65.8L-19.6,49Z" fill="rgb(175,217,224)" shape-rendering="crispEdges"/><path d="M-37.2,14.5L-19.6,49L-18.4,34.2Z" fill="rgb(218,241,215)" shape-rendering="crispEdges"/><path d="M98.7,8.5L86.2,6.2L80.2,16.7Z" fill="rgb(145,179,202)" shape-rendering="crispEdges"/><path d="M80.2,16.7L86.2,6.2L54.9,-0.5Z" fill="rgb(159,202,215)" shape-rendering="crispEdges"/><path d="M98.7,8.5L80.2,16.7L87.3,26.5Z" fill="rgb(140,177,197)" shape-rendering="crispEdges"/><path d="M17.4,154.1L48.9,143.4L18.8,126.6Z" fill="rgb(119,144,163)" shape-rendering="crispEdges"/><path d="M104.4,82L89.2,89.8L109.7,120.2Z" fill="rgb(10,88,155)" shape-rendering="crispEdges"/><path d="M34,-23L42,2.3L54.9,-0.5Z" fill="rgb(203,235,212)" shape-rendering="crispEdges"/><path d="M34,-23L26.9,-18.4L42,2.3Z" fill="rgb(216,240,214)" shape-rendering="crispEdges"/><path d="M18.5,-1L-3.6,-22.8L-23,9.6Z" fill="rgb(247,252,240)" shape-rendering="crispEdges"/><path d="M101.8,61.1L109.9,32.1L87.3,26.5Z" fill="rgb(108,151,169)" shape-rendering="crispEdges"/><path d="M120.8,48.2L109.9,32.1L101.8,61.1Z" fill="rgb(91,134,160)" shape-rendering="crispEdges"/><path d="M-39.9,-16.7L-37.2,14.5L-23,9.6Z" fill="rgb(245,251,238)" shape-rendering="crispEdges"/><path d="M-23,9.6L-37.2,14.5L-18.4,34.2Z" fill="rgb(231,246,224)" shape-rendering="crispEdges"/><path d="M109.9,32.1L98.7,8.5L87.3,26.5Z" fill="rgb(130,160,182)" shape-rendering="crispEdges"/><path d="M68.8,-15.8L34,-23L54.9,-0.5Z" fill="rgb(189,229,217)" shape-rendering="crispEdges"/><path d="M68.8,-15.8L54.9,-0.5L86.2,6.2Z" fill="rgb(169,211,223)" shape-rendering="crispEdges"/><path d="M26.9,-18.4L-3.6,-22.8L18.5,-1Z" fill="rgb(235,247,229)" shape-rendering="crispEdges"/><path d="M94,-5.5L68.8,-15.8L86.2,6.2Z" fill="rgb(157,191,214)" shape-rendering="crispEdges"/><path d="M-26.3,151.3L9.6,150.4L2.8,134.7Z" fill="rgb(141,152,184)" shape-rendering="crispEdges"/><path d="M2.8,134.7L9.6,150.4L18.8,126.6Z" fill="rgb(133,149,177)" shape-rendering="crispEdges"/><path d="M123.7,73.1L120.8,48.2L101.8,61.1Z" fill="rgb(65,124,166)" shape-rendering="crispEdges"/><path d="M109.9,32.1L118.6,4.2L98.7,8.5Z" fill="rgb(129,147,173)" shape-rendering="crispEdges"/><path d="M9.6,150.4L17.4,154.1L18.8,126.6Z" fill="rgb(129,147,173)" shape-rendering="crispEdges"/><path d="M89.2,89.8L76,109L109.7,120.2Z" fill="rgb(14,88,153)" shape-rendering="crispEdges"/><path d="M104.4,82L123.7,73.1L101.8,61.1Z" fill="rgb(43,112,166)" shape-rendering="crispEdges"/><path d="M110.4,-8.1L94,-5.5L98.7,8.5Z" fill="rgb(145,162,195)" shape-rendering="crispEdges"/><path d="M98.7,8.5L94,-5.5L86.2,6.2Z" fill="rgb(148,175,205)" shape-rendering="crispEdges"/><path d="M16.3,-46.1L-3.6,-22.8L26.9,-18.4Z" fill="rgb(236,248,230)" shape-rendering="crispEdges"/><path d="M109.7,120.2L76,109L110.6,124.9Z" fill="rgb(9,76,143)" shape-rendering="crispEdges"/><path d="M16.3,-46.1L-8.3,-23.1L-3.6,-22.8Z" fill="rgb(246,252,239)" shape-rendering="crispEdges"/><path d="M-3.6,-22.8L-8.3,-23.1L-23,9.6Z" fill="rgb(247,252,240)" shape-rendering="crispEdges"/><path d="M110.6,124.9L76,109L87.1,149.8Z" fill="rgb(15,87,152)" shape-rendering="crispEdges"/><path d="M68.8,-15.8L57.5,-38.5L34,-23Z" fill="rgb(188,228,218)" shape-rendering="crispEdges"/><path d="M34,-23L16.3,-46.1L26.9,-18.4Z" fill="rgb(226,244,219)" shape-rendering="crispEdges"/><path d="M94,-5.5L73.3,-25.9L68.8,-15.8Z" fill="rgb(161,197,217)" shape-rendering="crispEdges"/><path d="M87.1,149.8L76,109L60,130.6Z" fill="rgb(40,109,164)" shape-rendering="crispEdges"/><path d="M134.2,91.6L132.7,89.3L122.8,88.7Z" fill="rgb(17,89,153)" shape-rendering="crispEdges"/><path d="M87.1,149.8L60,130.6L48.9,143.4Z" fill="rgb(55,121,169)" shape-rendering="crispEdges"/><path d="M17.4,154.1L87.1,149.8L48.9,143.4Z" fill="rgb(83,132,162)" shape-rendering="crispEdges"/><path d="M134.2,91.6L122.8,88.7L133.1,112.7Z" fill="rgb(9,78,144)" shape-rendering="crispEdges"/><path d="M122.8,88.7L132.7,89.3L123.7,73.1Z" fill="rgb(26,97,157)" shape-rendering="crispEdges"/><path d="M123.7,73.1L145.9,45.4L120.8,48.2Z" fill="rgb(74,129,164)" shape-rendering="crispEdges"/><path d="M9.6,150.4L-26.3,151.3L17.4,154.1Z" fill="rgb(140,152,184)" shape-rendering="crispEdges"/><path d="M-26.1,117.4L-26.3,151.3L2.8,134.7Z" fill="rgb(141,152,184)" shape-rendering="crispEdges"/><path d="M-45.8,79.5L-26.3,151.3L-26.1,117.4Z" fill="rgb(141,152,184)" shape-rendering="crispEdges"/><path d="M135.8,3.1L118.6,4.2L146.7,16.2Z" fill="rgb(135,150,178)" shape-rendering="crispEdges"/><path d="M94,-5.5L111.5,-36L73.3,-25.9Z" fill="rgb(151,176,207)" shape-rendering="crispEdges"/><path d="M146.7,16.2L109.9,32.1L120.8,48.2Z" fill="rgb(114,142,161)" shape-rendering="crispEdges"/><path d="M111.5,-36L57.5,-38.5L73.3,-25.9Z" fill="rgb(159,194,215)" shape-rendering="crispEdges"/><path d="M73.3,-25.9L57.5,-38.5L68.8,-15.8Z" fill="rgb(172,216,225)" shape-rendering="crispEdges"/><path d="M133.1,112.7L122.8,88.7L109.7,120.2Z" fill="rgb(8,64,129)" shape-rendering="crispEdges"/><path d="M132.7,89.3L145.9,45.4L123.7,73.1Z" fill="rgb(47,116,168)" shape-rendering="crispEdges"/><path d="M118.6,4.2L110.4,-8.1L98.7,8.5Z" fill="rgb(140,151,183)" shape-rendering="crispEdges"/><path d="M-46.3,-33.4L-39.9,-16.7L-8.3,-23.1Z" fill="rgb(247,252,240)" shape-rendering="crispEdges"/><path d="M-8.3,-23.1L-39.9,-16.7L-23,9.6Z" fill="rgb(247,252,240)" shape-rendering="crispEdges"/><path d="M-37.2,14.5L-46.3,-33.4L-45.8,79.5Z" fill="rgb(230,246,224)" shape-rendering="crispEdges"/><path d="M57.5,-38.5L16.3,-46.1L34,-23Z" fill="rgb(214,239,213)" shape-rendering="crispEdges"/><path d="M130.3,128.5L109.7,120.2L110.6,124.9Z" fill="rgb(8,64,129)" shape-rendering="crispEdges"/><path d="M130.3,128.5L133.1,112.7L109.7,120.2Z" fill="rgb(8,64,129)" shape-rendering="crispEdges"/><path d="M151.1,149.1L145.9,45.4L134.2,91.6Z" fill="rgb(10,81,148)" shape-rendering="crispEdges"/><path d="M134.2,91.6L145.9,45.4L132.7,89.3Z" fill="rgb(38,108,163)" shape-rendering="crispEdges"/><path d="M133.7,131.4L130.3,128.5L110.6,124.9Z" fill="rgb(8,64,129)" shape-rendering="crispEdges"/><path d="M133.1,112.7L151.1,149.1L134.2,91.6Z" fill="rgb(8,64,129)" shape-rendering="crispEdges"/><path d="M146.7,16.2L118.6,4.2L109.9,32.1Z" fill="rgb(128,147,171)" shape-rendering="crispEdges"/><path d="M118.6,4.2L125.8,-16.2L110.4,-8.1Z" fill="rgb(141,152,184)" shape-rendering="crispEdges"/><path d="M110.4,-8.1L111.5,-36L94,-5.5Z" fill="rgb(142,155,187)" shape-rendering="crispEdges"/><path d="M87.1,149.8L133.7,131.4L110.6,124.9Z" fill="rgb(8,64,129)" shape-rendering="crispEdges"/><path d="M130.3,128.5L133.7,131.4L133.1,112.7Z" fill="rgb(8,64,129)" shape-rendering="crispEdges"/><path d="M135.8,3.1L125.8,-16.2L118.6,4.2Z" fill="rgb(141,152,184)" shape-rendering="crispEdges"/><path d="M145.9,45.4L146.7,16.2L120.8,48.2Z" fill="rgb(109,140,158)" shape-rendering="crispEdges"/><path d="M135.8,3.1L147.8,-20.4L125.8,-16.2Z" fill="rgb(141,152,184)" shape-rendering="crispEdges"/><path d="M16.3,-46.1L-46.3,-33.4L-8.3,-23.1Z" fill="rgb(247,252,240)" shape-rendering="crispEdges"/><path d="M-39.9,-16.7L-46.3,-33.4L-37.2,14.5Z" fill="rgb(247,252,240)" shape-rendering="crispEdges"/><path d="M125.8,-16.2L111.5,-36L110.4,-8.1Z" fill="rgb(141,152,184)" shape-rendering="crispEdges"/><path d="M57.5,-38.5L111.5,-36L16.3,-46.1Z" fill="rgb(178,220,223)" shape-rendering="crispEdges"/><path d="M147.8,-20.4L118.4,-35.1L125.8,-16.2Z" fill="rgb(141,152,184)" shape-rendering="crispEdges"/><path d="M125.8,-16.2L118.4,-35.1L111.5,-36Z" fill="rgb(141,152,184)" shape-rendering="crispEdges"/><path d="M151.1,149.1L147.8,-20.4L146.7,16.2Z" fill="rgb(89,134,160)" shape-rendering="crispEdges"/><path d="M146.7,16.2L147.8,-20.4L135.8,3.1Z" fill="rgb(141,152,184)" shape-rendering="crispEdges"/><path d="M17.4,154.1L151.1,149.1L87.1,149.8Z" fill="rgb(24,95,156)" shape-rendering="crispEdges"/><path d="M87.1,149.8L151.1,149.1L133.7,131.4Z" fill="rgb(8,64,129)" shape-rendering="crispEdges"/><path d="M133.7,131.4L151.1,149.1L133.1,112.7Z" fill="rgb(8,64,129)" shape-rendering="crispEdges"/><path d="M145.9,45.4L151.1,149.1L146.7,16.2Z" fill="rgb(46,115,167)" shape-rendering="crispEdges"/></g><g transform="translate(128.80716893461667, 21.467861489102777)"><path fill="#555" d="M6.372386325921008 12.574842349817454C10.790574178559574 12.574842349817454 12.744772651842016 10.280783272485893 12.744772651842016 7.137072685031528L12.744772651842016 5.437769664785928C12.744772651842016 2.2940590773315632 10.790574178559574 0 6.372386325921008 0C1.8692333222701631 0 9.43302669445868e-16 2.2940590773315632 9.43302669445868e-16 5.437769664785928L9.43302669445868e-16 7.137072685031528C9.43302669445868e-16 10.280783272485893 1.8692333222701631 12.574842349817454 6.372386325921008 12.574842349817454zM0.9346166611350821 63.38400265516096L11.810155990706937 63.38400265516096L11.810155990706937 19.032193826750746L0.9346166611350821 19.032193826750746zM50.21440424825755 63.38400265516096L61.0899435778294 63.38400265516096L61.0899435778294 0.5097909060736812L50.21440424825755 0.5097909060736812L50.21440424825755 26.339196813806833L49.789578493196146 26.339196813806833C48.260205774975105 21.24128775307003 43.41719216727514 18.012612014603384 37.55459674742781 18.012612014603384C26.424161964819117 18.012612014603384 20.221705940922668 26.339196813806833 20.221705940922668 41.12313308994357C20.221705940922668 55.9920345170926 26.424161964819117 64.40358446730832 37.55459674742781 64.40358446730832C43.41719216727514 64.40358446730832 48.17524062396282 61.004978426817125 49.789578493196146 55.9920345170926L50.21440424825755 55.9920345170926zM41.038167938931295 55.39727846000664C35.43046797212081 55.39727846000664 31.6070361765682 51.318951211417186 31.6070361765682 45.03153003650846L31.6070361765682 37.384666445403255C31.6070361765682 31.097245270494522 35.43046797212081 26.933952870892796 41.038167938931295 26.933952870892796C46.22104215068038 26.933952870892796 50.21440424825755 29.73780285429804 50.21440424825755 34.07102555592432L50.21440424825755 48.17524062396283C50.21440424825755 52.76335877862595 46.22104215068038 55.39727846000664 41.038167938931295 55.39727846000664zM89.89312977099237 64.40358446730832C98.13474941918354 64.40358446730832 104.5921008961168 61.25987387985396 108.24560238964484 56.246929970129436L102.38300696979755 49.70461334218387C99.66412213740458 53.188184533687355 96.43544639893794 55.737139064055754 91.08264188516428 55.737139064055754C83.94556920013274 55.737139064055754 80.2920677066047 51.40391636242947 80.2920677066047 45.03153003650846L80.2920677066047 43.926983073348815L109.77497510786593 43.926983073348815L109.77497510786593 40.35844673083305C109.77497510786593 28.208430136077 103.40258878194491 18.012612014603384 89.55326916694324 18.012612014603384C76.5536010620644 18.012612014603384 68.99170262197146 27.10388317291736 68.99170262197146 41.12313308994357C68.99170262197146 55.31231330899436 76.80849651510121 64.40358446730832 89.89312977099237 64.40358446730832zM89.72319946896779 26.169266511782276C95.33089943577828 26.169266511782276 98.47461002323266 30.332558911384 98.47461002323266 36.45004978426817L98.47461002323266 37.21473614337869L80.2920677066047 37.21473614337869L80.2920677066047 36.53501493528045C80.2920677066047 30.417524062396282 84.03053435114504 26.169266511782276 89.72319946896779 26.169266511782276zM128.6372386325921 64.40358446730832C135.26452041154997 64.40358446730832 140.10753401924993 61.42980418187852 141.55194158645867 55.737139064055754L142.06173249253237 55.737139064055754C142.7414537006306 60.32525721871888 145.63026883504813 63.38400265516096 150.30335214072352 63.38400265516096L156.33587786259542 63.38400265516096L156.33587786259542 54.717557251908396L151.91769000995686 54.717557251908396L151.91769000995686 33.816130102887485C151.91769000995686 23.70527713242615 145.54530368403584 18.012612014603384 133.56521739130437 18.012612014603384C124.64387653501494 18.012612014603384 119.46100232326583 21.411218055094587 116.2323265847992 26.509127115831397L122.6896780617325 32.286757384666444C124.8138068370395 29.228011948224363 127.70262197145702 26.679057417855955 132.80053103219385 26.679057417855955C138.57816130102887 26.679057417855955 141.042150680385 29.567872552273474 141.042150680385 34.49585131098572L141.042150680385 37.72452704945238L133.48025224029206 37.72452704945238C121.41520079654828 37.72452704945238 114.5330235645536 42.227680053103214 114.5330235645536 51.318951211417186C114.5330235645536 59.22071025555924 119.63093262529041 64.40358446730832 128.6372386325921 64.40358446730832zM132.29074012612014 56.501825423166274C128.04248257550614 56.501825423166274 125.57849319615002 54.717557251908396 125.57849319615002 51.14902090939263L125.57849319615002 49.70461334218387C125.57849319615002 46.22104215068038 128.38234317955525 44.26684367739794 134.07500829737802 44.26684367739794L141.042150680385 44.26684367739794L141.042150680385 50.12943909724526C141.042150680385 54.29273149684699 137.1337537338201 56.501825423166274 132.29074012612014 56.501825423166274zM174.3484898771988 63.38400265516096L174.3484898771988 34.07102555592432C174.3484898771988 29.31297709923664 178.42681712578823 26.933952870892796 182.59010952538998 26.933952870892796C187.43312313308994 26.933952870892796 189.72718221042152 30.07766345834716 189.72718221042152 36.45004978426817L189.72718221042152 63.38400265516096L200.60272153999335 63.38400265516096L200.60272153999335 34.07102555592432C200.60272153999335 29.31297709923664 204.59608363757053 26.933952870892796 208.84434118818453 26.933952870892796C213.68735479588452 26.933952870892796 215.98141387321607 30.07766345834716 215.98141387321607 36.45004978426817L215.98141387321607 63.38400265516096L226.8569532027879 63.38400265516096L226.8569532027879 35.345502821108525C226.8569532027879 24.300033189512114 221.92897444407566 18.012612014603384 213.2625290408231 18.012612014603384C206.21042150680384 18.012612014603384 201.2824427480916 22.00597411218055 199.66810487885826 26.933952870892796L199.49817457683372 26.933952870892796C197.3740458015267 20.986392300033184 192.7009624958513 18.012612014603384 186.66843677397944 18.012612014603384C180.04115499502157 18.012612014603384 176.4726186525058 21.751078659143705 174.7733156322602 26.424161964819117L174.3484898771988 26.424161964819117L174.3484898771988 19.032193826750746L163.47295054762697 19.032193826750746L163.47295054762697 63.38400265516096zM248.18320610687022 64.40358446730832C254.81048788582808 64.40358446730832 259.65350149352804 61.42980418187852 261.0979090607368 55.737139064055754L261.6076999668105 55.737139064055754C262.28742117490873 60.32525721871888 265.1762363093262 63.38400265516096 269.84931961500166 63.38400265516096L275.88184533687354 63.38400265516096L275.88184533687354 54.717557251908396L271.46365748423494 54.717557251908396L271.46365748423494 33.816130102887485C271.46365748423494 23.70527713242615 265.09127115831393 18.012612014603384 253.1111848655825 18.012612014603384C244.18984400929307 18.012612014603384 239.00696979754397 21.411218055094587 235.77829405907733 26.509127115831397L242.23564553601062 32.286757384666444C244.3597743113176 29.228011948224363 247.24858944573515 26.679057417855955 252.34649850647193 26.679057417855955C258.124128775307 26.679057417855955 260.5881181546631 29.567872552273474 260.5881181546631 34.49585131098572L260.5881181546631 37.72452704945238L253.02621971457017 37.72452704945238C240.9611682708264 37.72452704945238 234.07899103883173 42.227680053103214 234.07899103883173 51.318951211417186C234.07899103883173 59.22071025555924 239.17690009956854 64.40358446730832 248.18320610687022 64.40358446730832zM251.83670760039826 56.501825423166274C247.58845004978426 56.501825423166274 245.12446067042814 54.717557251908396 245.12446067042814 51.14902090939263L245.12446067042814 49.70461334218387C245.12446067042814 46.22104215068038 247.92831065383336 44.26684367739794 253.62097577165616 44.26684367739794L260.5881181546631 44.26684367739794L260.5881181546631 50.12943909724526C260.5881181546631 54.29273149684699 256.6797212080982 56.501825423166274 251.83670760039826 56.501825423166274zM293.8944573514769 63.38400265516096L293.8944573514769 34.07102555592432C293.8944573514769 29.31297709923664 298.22768005310314 26.933952870892796 302.730833056754 26.933952870892796C307.91370726850306 26.933952870892796 310.0378360438101 30.162628609359437 310.0378360438101 36.45004978426817L310.0378360438101 63.38400265516096L320.91337537338194 63.38400265516096L320.91337537338194 35.345502821108525C320.91337537338194 24.300033189512114 315.8154663126451 18.012612014603384 306.72419515433114 18.012612014603384C299.84201792233654 18.012612014603384 296.10355127779616 21.666113508131428 294.3192831065383 26.424161964819117L293.8944573514769 26.424161964819117L293.8944573514769 19.032193826750746L283.018918021905 19.032193826750746L283.018918021905 63.38400265516096zM339.6057085960836 27.018918021905073L339.6057085960836 0.5097909060736812L329.91968138068364 0.5097909060736812L329.91968138068364 27.018918021905073zM364.92532359774304 64.40358446730832C375.9707932293395 64.40358446730832 383.19283106538325 58.45602389644872 383.19283106538325 49.87454364420843C383.19283106538325 42.48257550614006 378.51974775970785 38.149352804513775 368.83372054430794 36.78991038831729L364.3305675406571 36.19515433123133C360.1672751410554 35.515433123133086 358.55293727182203 34.1559907069366 358.55293727182203 31.182210421506802C358.55293727182203 28.463325589113836 360.5921008961168 26.594092266843674 365.2651842017922 26.594092266843674C369.5984069034185 26.594092266843674 373.3368735479588 28.6332558911384 375.88582807832717 31.352140723531367L382.2582144042482 24.979754397610357C378.0099568536342 20.561566544971786 373.59176900099567 18.012612014603384 364.92532359774304 18.012612014603384C354.81447062728176 18.012612014603384 348.1022236973116 23.45038167938931 348.1022236973116 32.0318619316296C348.1022236973116 40.103551277796214 353.37006306007294 44.26684367739794 362.8861599734484 45.45635579156986L367.3043478260869 46.05111184865583C371.2127447726518 46.5609027547295 372.74211749087283 48.17524062396283 372.74211749087283 50.72419515433123C372.74211749087283 53.8679057417856 370.53302356455356 55.82210421506803 365.35014935280446 55.82210421506803C360.33720544307994 55.82210421506803 356.42880849651505 53.52804513773647 353.2001327580484 49.789578493196146L346.57285097909056 56.246929970129436C350.9910388317291 61.34483903086624 356.5137736475274 64.40358446730832 364.92532359774304 64.40358446730832z"/></g></svg>